<?xml version="1.0" encoding="UTF-8" standalone="no"?>
<!-- Created with Inkscape (http://www.inkscape.org/) -->

<svg
   xmlns:dc="http://purl.org/dc/elements/1.1/"
   xmlns:cc="http://creativecommons.org/ns#"
   xmlns:rdf="http://www.w3.org/1999/02/22-rdf-syntax-ns#"
   xmlns:svg="http://www.w3.org/2000/svg"
   xmlns="http://www.w3.org/2000/svg"
   xmlns:sodipodi="http://sodipodi.sourceforge.net/DTD/sodipodi-0.dtd"
   xmlns:inkscape="http://www.inkscape.org/namespaces/inkscape"
   width="297mm"
   height="210mm"
   viewBox="0 0 297 210"
   version="1.1"
   id="svg8">
  <defs
     id="defs2">
    <clipPath
       id="clipPath915"
       clipPathUnits="userSpaceOnUse">
      <path
         inkscape:connector-curvature="0"
         id="path913"
         d="M 0,0 H 800 V 800 H 0 Z" />
    </clipPath>
    <radialGradient
       id="radialGradient925"
       spreadMethod="pad"
       gradientTransform="matrix(591.03998,0,0,-591.03998,400,400)"
       gradientUnits="userSpaceOnUse"
       r="1"
       cy="0"
       cx="0"
       fy="0"
       fx="0">
      <stop
         id="stop921"
         offset="0"
         style="stop-opacity:1;stop-color:#5a686a" />
      <stop
         id="stop923"
         offset="1"
         style="stop-opacity:1;stop-color:#1f3235" />
    </radialGradient>
    <clipPath
       id="clipPath935"
       clipPathUnits="userSpaceOnUse">
      <path
         inkscape:connector-curvature="0"
         id="path933"
         d="m 621.732,683.117 c -2.31,-2.487 -5.416,-4.945 -9.663,-7.28 v 0 c -9.348,-5.134 -22.401,-6.999 -34.263,-7.221 v 0 c -11.859,0.222 -24.913,2.087 -34.26,7.221 v 0 c -8.147,4.477 -12.103,9.418 -14.277,14.142 v 0 c -0.374,0.815 -0.696,1.625 -0.976,2.424 v 0 c -0.76,-0.283 -1.37,-1.057 -1.872,-2.041 v 0 c -1.05,-2.056 -1.624,-5.027 -2.112,-6.325 v 0 c -0.061,-0.171 -0.304,-0.382 -0.67,-0.625 v 0 c 0.977,-2.304 2.312,-4.554 3.973,-6.699 v 0 c 1.702,-2.198 3.752,-4.286 6.109,-6.209 v 0 c 0.626,-0.508 1.272,-1.005 1.943,-1.493 v 0 c 5.577,-4.041 12.64,-7.192 20.855,-8.838 v 0 c 7.083,-1.414 14.204,-2.034 21.104,-2.056 v 0 c 0.058,0 0.12,0.003 0.183,0.003 v 0 c 0.061,0 0.124,-0.003 0.187,0.006 v 0 c 6.899,0.013 14.018,0.633 21.103,2.047 v 0 c 5.451,1.096 10.392,2.85 14.736,5.085 v 0 c 2.982,1.537 5.682,3.309 8.063,5.246 v 0 c 2.357,1.923 4.402,4.011 6.107,6.209 v 0 c 1.658,2.145 2.995,4.395 3.973,6.699 v 0 c -0.366,0.243 -0.605,0.454 -0.673,0.625 v 0 c -0.484,1.298 -1.063,4.269 -2.112,6.325 v 0 c -0.499,0.984 -1.11,1.758 -1.869,2.041 v 0 c -1.061,-3.016 -2.699,-6.172 -5.589,-9.286" />
    </clipPath>
    <clipPath
       id="clipPath1003"
       clipPathUnits="userSpaceOnUse">
      <path
         inkscape:connector-curvature="0"
         id="path1001"
         d="m 625.34,692.086 c -0.99,-0.605 -3.386,-1.443 -6.834,-2.343 v 0 c -8.702,-2.271 -24.132,-4.94 -40.7,-5.378 v 0 c -13.809,0.362 -26.82,2.279 -35.811,4.222 v 0 c -6.078,1.312 -10.318,2.636 -11.719,3.499 v 0 c -0.759,0.469 -1.414,0.526 -1.983,0.317 v 0 c 0.312,-0.894 0.678,-1.798 1.111,-2.71 v 0 c 0.872,-1.846 2.032,-3.726 3.607,-5.59 v 0 c 1.187,-1.403 2.61,-2.799 4.327,-4.176 v 0 c 1.741,-1.395 3.792,-2.763 6.208,-4.09 v 0 c 2.892,-1.588 6.14,-2.864 9.59,-3.873 v 0 c 7.66,-2.241 16.347,-3.182 24.487,-3.356 v 0 c 0.058,0.005 0.12,0.008 0.183,0.008 v 0 c 0.061,0 0.124,-0.003 0.187,0.007 v 0 c 10.119,0.203 21.094,1.603 29.876,5.216 v 0 c 3.717,1.53 7.264,3.576 10.406,6.088 v 0 c 1.721,1.377 3.143,2.773 4.33,4.176 v 0 c 1.573,1.864 2.731,3.744 3.606,5.59 v 0 c 0.432,0.912 0.796,1.816 1.11,2.71 v 0 c -0.204,0.075 -0.418,0.116 -0.644,0.116 v 0 c -0.406,0 -0.85,-0.131 -1.337,-0.433" />
    </clipPath>
    <clipPath
       id="clipPath1081"
       clipPathUnits="userSpaceOnUse">
      <path
         inkscape:connector-curvature="0"
         id="path1079"
         d="m 599.096,660.173 c -4.779,-0.953 -9.573,-1.546 -14.301,-1.838 v 0 c -2.35,-0.145 -4.68,-0.214 -6.989,-0.215 v 0 c -4.816,0.004 -9.741,0.303 -14.689,0.96 v 0 c -2.197,0.292 -4.398,0.655 -6.598,1.093 v 0 c -6.446,1.291 -12.183,3.509 -17.05,6.358 v 0 c -4.063,2.378 -7.516,5.195 -10.271,8.278 v 0 c -2.415,2.701 -4.288,5.609 -5.559,8.603 v 0 c -1.687,-1.114 -6.368,-2.941 -12.385,-5.086 v 0 c -1.249,-0.443 -2.498,-0.883 -3.745,-1.319 v 0 c -4.842,-1.684 -9.699,-3.308 -14.555,-4.946 v 0 c -7.606,-2.564 -15.198,-5.153 -22.685,-8.042 v 0 c -4.084,-1.573 -8.484,-3.347 -12.805,-5.192 v 0 c -6.419,-2.738 -12.673,-5.638 -17.495,-8.294 v 0 c -2.781,-1.533 -5.086,-2.986 -6.668,-4.282 v 0 c 1.551,-1.722 3.145,-3.559 4.765,-5.52 v 0 c 8.193,-9.942 17.018,-23.192 24.506,-42.281 v 0 c 1.038,-2.648 2.048,-5.407 3.031,-8.284 v 0 c 5.596,-16.404 7.224,-29.455 7.027,-41.194 v 0 c -0.104,-6.301 -0.733,-12.222 -1.557,-18.082 v 0 c 0,0 0.069,-3.276 0.09,-8.778 v 0 c 0.012,-2.678 0.012,-5.883 -0.01,-9.493 v 0 c -0.032,-4.85 -0.103,-10.434 -0.251,-16.46 v 0 c -0.028,-1.223 -0.062,-2.465 -0.099,-3.723 v 0 c -0.452,-15.9 -1.431,-34.311 -3.459,-50.274 v 0 c -0.491,-3.871 -0.956,-7.867 -1.399,-11.94 v 0 c -2.96,-27.333 -4.776,-104.804 -5.455,-122.806 v 0 c -0.2,-5.352 -0.303,-9.584 -0.303,-12.279 v 0 c 0,-4.815 0.239,-9.464 0.547,-13.424 v 0 c 0.523,-6.844 1.242,-11.631 1.242,-11.631 v 0 c 0,0 0.13,-0.062 0.406,-0.189 v 0 c 0.475,-0.213 1.384,-0.598 2.804,-1.108 v 0 c 0.978,-0.347 2.201,-0.76 3.691,-1.209 v 0 c 2.26,-0.679 5.14,-1.459 8.723,-2.27 v 0 c 2.289,-0.521 4.862,-1.056 7.748,-1.589 v 0 c 0.745,-0.139 1.509,-0.275 2.294,-0.414 v 0 c 5.105,-0.891 11.086,-1.772 18.058,-2.565 v 0 c 4.467,-0.509 9.341,-0.982 14.648,-1.402 v 0 c 8.793,-0.701 18.777,-1.252 30.078,-1.572 v 0 c 3.03,-0.086 6.155,-0.157 9.378,-0.207 v 0 c 3.661,-0.057 7.321,-0.051 10.981,-0.045 v 0 c 2.502,0.005 5.004,0.009 7.507,-0.006 v 0 c 5.677,-0.051 11.509,-0.041 17.52,0.051 v 0 c 25.566,0.404 45.016,1.963 59.568,3.845 v 0 c 2.084,0.272 4.068,0.549 5.953,0.83 v 0 c 8.313,1.24 14.743,2.561 19.6,3.764 v 0 c 2.145,0.531 3.985,1.038 5.54,1.502 v 0 c 1.816,0.543 3.253,1.025 4.343,1.426 v 0 c 1.962,0.717 2.818,1.158 2.818,1.158 v 0 c 0,0 0.722,4.787 1.246,11.631 v 0 c 0.308,3.96 0.544,8.609 0.544,13.424 v 0 c 0,2.695 -0.101,6.929 -0.303,12.279 v 0 c -0.677,18.006 -2.495,95.477 -5.452,122.806 v 0 c -0.445,4.073 -0.908,8.069 -1.399,11.94 v 0 c -2.027,15.957 -3.006,34.363 -3.459,50.261 v 0 c -0.035,1.258 -0.069,2.499 -0.098,3.723 v 0 c -0.146,6.024 -0.219,11.609 -0.25,16.463 v 0 c -0.022,3.607 -0.022,6.81 -0.011,9.487 v 0 c 0.023,5.524 0.09,8.815 0.09,8.822 v 0 c -0.825,5.85 -1.453,11.759 -1.56,18.046 v 0 c -0.198,11.747 1.429,24.809 7.027,41.229 v 0 c 0.979,2.869 1.986,5.618 3.022,8.257 v 0 c 7.488,19.093 16.309,32.345 24.502,42.29 v 0 c 1.619,1.964 3.215,3.8 4.766,5.524 v 0 c -3.807,3.105 -11.754,7.118 -20.49,10.974 v 0 c -4.148,1.832 -8.335,3.587 -12.552,5.263 v 0 c -3.612,1.437 -7.251,2.815 -10.91,4.135 v 0 c -9.066,3.272 -21.943,7.46 -31.933,10.968 v 0 c -3.17,1.108 -6.047,2.155 -8.423,3.076 v 0 c -2.862,1.116 -4.993,2.055 -6.016,2.732 v 0 c -4.464,-10.511 -16.348,-19.93 -32.879,-23.239" />
    </clipPath>
    <clipPath
       id="clipPath1917"
       clipPathUnits="userSpaceOnUse">
      <path
         inkscape:connector-curvature="0"
         id="path1915"
         d="m 713.944,636.207 c -7.52,-9.884 -15.32,-22.757 -21.957,-40.484 v 0 c -0.673,-1.793 -1.331,-3.636 -1.978,-5.53 v 0 c -3.36,-9.853 -5.29,-18.497 -6.251,-26.376 v 0 c -0.898,-7.348 -0.952,-14.03 -0.543,-20.407 v 0 c 0.029,-0.5 0.066,-0.997 0.103,-1.491 v 0 c 0.284,-3.751 0.72,-7.405 1.233,-11.038 v 0 c 0.049,-0.058 1.888,-2.108 4.306,-5.209 v 0 c 1.158,-1.483 2.447,-3.208 3.738,-5.072 v 0 c 1.08,-1.561 2.518,-4.029 4.102,-6.801 v 0 c 0.991,-1.736 2.035,-3.587 3.094,-5.414 v 0 c 0.782,-1.356 1.573,-2.702 2.342,-3.969 v 0 c 1.78,-2.93 3.469,-5.459 4.805,-6.845 v 0 c 0.694,-0.718 1.293,-1.128 1.763,-1.128 v 0 c 0.701,0 2.434,0.672 4.787,1.774 v 0 c 2.937,1.371 6.847,3.406 10.931,5.62 v 0 c 3.061,1.659 6.222,3.417 9.149,5.072 v 0 c 1.203,0.677 2.365,1.339 3.464,1.971 v 0 c 2.186,1.251 4.364,2.511 6.529,3.798 v 0 c 1.228,0.727 2.61,1.522 4.093,2.367 v 0 c 4.167,2.37 9.156,5.109 13.948,7.703 v 0 c 2.304,1.248 4.563,2.462 6.663,3.587 v 0 c 1.943,1.04 3.75,2.004 5.332,2.842 v 0 c 0.65,0.347 1.264,0.672 1.833,0.974 v 0 c 0.936,0.492 1.75,0.923 2.415,1.273 v 0 c 1.256,0.667 1.984,1.045 1.984,1.045 v 0 c 0,0 -0.652,1.396 -1.748,3.724 v 0 c -0.143,0.309 -0.294,0.63 -0.456,0.972 v 0 c -1.927,4.088 -4.904,10.384 -8.069,16.987 v 0 c -3.914,8.155 -8.116,16.782 -10.995,22.311 v 0 c -5.33,10.249 -10.72,20.465 -16.026,30.727 v 0 c -2.455,4.743 -4.933,9.545 -7.249,14.019 v 0 c -0.338,0.65 -0.674,1.296 -1,1.932 v 0 c -0.174,0.336 -0.347,0.671 -0.521,1.004 v 0 c -0.104,0.198 -0.206,0.399 -0.312,0.6 v 0 c -0.251,0.483 -0.499,0.963 -0.743,1.435 v 0 c -0.265,0.51 -0.525,1.015 -0.781,1.51 v 0 c -0.536,1.031 -1.053,2.027 -1.549,2.984 v 0 c -0.204,0.391 -0.405,0.777 -0.604,1.152 v 0 c -0.34,0.652 -0.664,1.277 -0.981,1.882 v 0 c -0.136,0.257 -0.267,0.507 -0.391,0.753 v 0 c -0.312,0.599 -0.611,1.171 -0.897,1.715 v 0 c -0.382,0.725 -0.738,1.4 -1.066,2.02 v 0 c -0.323,0.613 -0.62,1.173 -0.884,1.671 v 0 c -0.216,0.403 -0.411,0.765 -0.586,1.085 v 0 c -0.096,0.173 -0.187,0.34 -0.285,0.506 v 0 c -0.128,0.219 -0.257,0.425 -0.395,0.629 v 0 c -0.317,0.468 -0.66,0.901 -1.053,1.311 v 0 c -0.285,0.298 -0.596,0.584 -0.939,0.866 v 0 c -2.692,-2.989 -5.507,-6.308 -8.355,-10.057" />
    </clipPath>
    <clipPath
       id="clipPath2339"
       clipPathUnits="userSpaceOnUse">
      <path
         inkscape:connector-curvature="0"
         id="path2337"
         d="m 431.905,644.842 c -1.137,-1.409 -1.895,-3.054 -2.77,-4.713 v 0 c -0.147,-0.283 -0.304,-0.58 -0.468,-0.889 v 0 c -0.386,-0.735 -0.807,-1.531 -1.252,-2.385 v 0 c -0.447,-0.855 -0.922,-1.766 -1.42,-2.725 v 0 c -0.216,-0.416 -0.438,-0.838 -0.663,-1.268 v 0 c -0.555,-1.071 -1.138,-2.192 -1.743,-3.357 v 0 c -0.462,-0.892 -0.938,-1.81 -1.42,-2.747 v 0 c -0.602,-1.153 -1.215,-2.339 -1.841,-3.549 v 0 c -1.29,-2.492 -2.628,-5.079 -3.984,-7.705 v 0 c -6.902,-13.354 -14.278,-27.628 -17.719,-34.078 v 0 c -7.364,-13.8 -13.997,-28.016 -20.617,-42.195 v 0 c -0.112,-0.241 -0.223,-0.485 -0.336,-0.722 v 0 c -0.629,-1.349 -1.258,-2.692 -1.887,-4.04 v 0 c 0,0 2.768,-1.452 6.879,-3.638 v 0 c 3.34,-1.777 7.571,-4.036 11.927,-6.401 v 0 c 5.697,-3.087 11.61,-6.343 16.047,-8.926 v 0 c 0.56,-0.326 1.098,-0.64 1.607,-0.943 v 0 c 0.726,-0.432 1.582,-0.935 2.543,-1.493 v 0 c 3.234,-1.882 7.624,-4.392 12.133,-6.889 v 0 c 4.51,-2.498 9.134,-4.982 12.831,-6.815 v 0 c 2.001,-0.994 3.73,-1.799 5.026,-2.308 v 0 c 0.997,-0.393 1.735,-0.613 2.135,-0.613 v 0 c 3.133,0 12.079,18.342 16.106,24.157 v 0 c 0.301,0.432 0.599,0.859 0.895,1.272 v 0 c 3.71,5.183 7.159,9.018 7.159,9.018 v 0 c 0.232,1.642 0.447,3.287 0.641,4.942 v 0 c 0.033,0.297 0.065,0.593 0.099,0.887 v 0 c 1.668,15.038 1.397,31.142 -6.21,53.447 v 0 c -0.983,2.877 -1.993,5.636 -3.033,8.285 v 0 c -7.495,19.106 -16.325,32.358 -24.527,42.303 v 0 c -1.611,1.956 -3.198,3.783 -4.742,5.497 v 0 c -0.53,-0.43 -0.989,-0.903 -1.396,-1.409" />
    </clipPath>
    <clipPath
       id="clipPath2585"
       clipPathUnits="userSpaceOnUse">
      <path
         inkscape:connector-curvature="0"
         id="path2583"
         d="m 162.008,530.687 c -2.377,-0.921 -5.255,-1.967 -8.423,-3.076 v 0 c -9.991,-3.508 -22.868,-7.696 -31.933,-10.968 v 0 c -3.657,-1.32 -7.298,-2.698 -10.91,-4.135 v 0 c -4.219,-1.676 -8.405,-3.431 -12.554,-5.263 v 0 c -8.733,-3.856 -16.68,-7.869 -20.487,-10.974 v 0 c 1.55,-1.724 3.145,-3.56 4.763,-5.524 v 0 c 8.195,-9.945 17.017,-23.197 24.505,-42.291 v 0 c 1.034,-2.638 2.042,-5.387 3.021,-8.256 v 0 c 5.599,-16.419 7.226,-29.482 7.024,-41.227 v 0 c -0.105,-6.289 -0.734,-12.198 -1.556,-18.047 v 0 c 0,-0.008 0.067,-3.297 0.089,-8.823 v 0 c 0.011,-2.677 0.011,-5.88 -0.011,-9.486 v 0 c -0.032,-4.855 0.647,-9.297 0.857,-15.5 v 0 c 0.042,-1.225 0.673,-3.717 0.637,-4.975 v 0 c -0.166,-5.82 -0.637,-10.132 -0.776,-17.246 v 0 c -0.014,-0.701 0.248,-2.228 0.171,-2.927 v 0 c -0.428,-3.924 -0.611,-7.418 -1.287,-11.344 v 0 c -0.076,-0.437 -0.528,-3.096 -0.604,-3.533 v 0 c -0.994,-5.702 -2.124,-9.559 -2.804,-14.922 v 0 c -0.491,-3.871 -0.957,-7.867 -1.397,-11.942 v 0 c -0.69,-6.367 -1.318,-15.459 -1.883,-25.884 v 0 c -0.742,-13.672 -1.376,-29.641 -1.904,-44.78 v 0 c -0.125,-3.564 -0.244,-7.078 -0.357,-10.506 v 0 c -0.218,-6.701 -0.416,-13.066 -0.591,-18.801 v 0 c -0.275,-9.003 -0.428,-10.898 -0.64,-15.598 v 0 c -0.279,-6.042 0.086,-4.101 0.434,-7.874 v 0 c 0.534,-5.84 0.03,-7.373 -0.249,-13.324 v 0 c -0.224,-4.807 -0.329,-7.78 -0.022,-11.741 v 0 c 0.523,-6.843 1.244,-11.63 1.244,-11.63 v 0 c 0,0 0.856,-0.443 2.819,-1.16 v 0 c 1.091,-0.399 2.526,-0.883 4.342,-1.424 v 0 c 1.554,-0.465 3.395,-0.973 5.54,-1.504 v 0 c 4.857,-1.202 11.288,-2.524 19.6,-3.762 v 0 c 1.886,-0.283 3.87,-0.558 5.953,-0.83 v 0 c 14.552,-1.885 34.001,-3.443 59.569,-3.846 v 0 c 6.011,-0.093 11.843,-0.101 17.52,-0.053 v 0 c 2.496,0.016 4.995,0.012 7.492,0.008 v 0 c 3.665,-0.007 7.33,-0.013 10.996,0.045 v 0 c 22.492,0.358 40.249,1.604 54.104,3.18 v 0 c 6.971,0.793 12.952,1.674 18.056,2.567 v 0 c 0.785,0.137 1.552,0.275 2.296,0.414 v 0 c 2.886,0.533 5.459,1.068 7.746,1.588 v 0 c 3.582,0.812 6.463,1.589 8.725,2.271 v 0 c 1.49,0.449 2.712,0.861 3.691,1.209 v 0 c 1.42,0.507 2.329,0.893 2.805,1.108 v 0 c 0.273,0.125 0.402,0.189 0.402,0.189 v 0 c 0,0 0.72,4.787 1.243,11.63 v 0 c 0.307,3.961 0.545,8.61 0.545,13.423 v 0 c 0,2.695 -0.099,6.929 -0.301,12.279 v 0 c -0.019,0.515 -0.04,1.076 -0.061,1.685 v 0 c -0.164,4.702 -2.82,17.875 -2.617,26.883 v 0 c 0.124,5.444 0.587,6.514 0.031,12.077 v 0 c -0.179,1.786 0.343,5.488 0.218,9.048 v 0 c -0.528,15.139 -0.402,33.555 -1.142,47.229 v 0 c -0.565,10.425 -1.193,19.517 -1.883,25.884 v 0 c -0.445,4.075 -0.909,8.071 -1.4,11.942 v 0 c -0.68,5.359 -1.243,10.994 -1.707,16.719 v 0 c -0.037,0.439 -0.071,0.878 -0.106,1.32 v 0 c -0.31,3.951 -0.573,7.939 -0.796,11.9 v 0 c -0.039,0.707 -0.079,1.412 -0.117,2.118 v 0 c -0.333,6.248 -0.568,12.4 -0.733,18.217 v 0 c -0.036,1.257 -0.069,2.499 -0.099,3.722 v 0 c -0.145,6.027 -1.714,11.611 -1.743,16.461 v 0 c -0.023,3.609 1.484,3.472 1.484,9.494 v 0 c -0.002,5.5 0.09,8.777 0.09,8.777 v 0 c -0.826,5.86 -1.455,11.782 -1.558,18.08 v 0 c -0.197,11.74 1.432,24.791 7.025,41.195 v 0 c 0.984,2.878 1.996,5.636 3.034,8.283 v 0 c 7.488,19.09 16.313,32.34 24.506,42.282 v 0 c 1.618,1.962 3.212,3.798 4.764,5.52 v 0 c -1.582,1.296 -3.888,2.749 -6.67,4.281 v 0 c -4.82,2.657 -11.074,5.557 -17.493,8.295 v 0 c -4.32,1.845 -8.721,3.619 -12.805,5.192 v 0 c -7.487,2.89 -15.081,5.478 -22.684,8.042 v 0 c -4.855,1.638 -9.716,3.262 -14.553,4.946 v 0 c -1.251,0.436 -2.499,0.875 -3.745,1.319 v 0 c -6.02,2.144 -12.755,3.098 -12.39,5.086 v 0 c 0,0 -5.791,-2.252 -9.284,-3.208 v 0 c -9.729,-2.668 -12.716,-3.235 -24.663,-4.864 v 0 c -8.192,-1.116 -14.332,-1.502 -21.29,-1.508 v 0 c -2.307,0.002 -4.638,0.071 -6.985,0.217 v 0 c -4.731,0.291 -9.524,0.884 -14.303,1.838 v 0 c -16.531,3.307 -18.303,3.39 -30.548,7.845 v 0 c -0.203,-1.209 -4.416,-1.936 -7.277,-3.052" />
    </clipPath>
    <clipPath
       id="clipPath3867"
       clipPathUnits="userSpaceOnUse">
      <path
         inkscape:connector-curvature="0"
         id="path3865"
         d="m 75.71,494.094 c -0.137,-0.204 -0.267,-0.41 -0.397,-0.629 v 0 c -0.098,-0.166 -0.19,-0.333 -0.286,-0.506 v 0 c -0.39,-0.716 -0.884,-1.645 -1.471,-2.756 v 0 c -0.372,-0.707 -0.783,-1.487 -1.226,-2.331 v 0 c -0.235,-0.45 -0.48,-0.918 -0.735,-1.404 v 0 c -0.125,-0.245 -0.257,-0.496 -0.391,-0.753 v 0 c -0.316,-0.605 -0.643,-1.23 -0.981,-1.882 v 0 c -0.199,-0.376 -0.398,-0.762 -0.603,-1.152 v 0 c -0.956,-1.842 -1.987,-3.832 -3.075,-5.929 v 0 c -0.105,-0.201 -0.209,-0.402 -0.311,-0.6 v 0 c -0.173,-0.333 -0.348,-0.667 -0.522,-1.004 v 0 c -0.326,-0.636 -0.663,-1.281 -0.998,-1.933 v 0 c -2.317,-4.473 -4.795,-9.275 -7.251,-14.018 v 0 C 52.16,448.935 46.769,438.719 41.437,428.47 v 0 c -2.879,-5.529 -5.712,-13.139 -9.811,-21.2 v 0 c -0.403,-0.794 -0.341,-0.877 -0.651,-1.465 v 0 c -0.155,-0.297 -0.393,-0.993 -0.791,-1.767 v 0 c -0.818,-1.591 -1.161,-2.214 -1.929,-3.648 v 0 c -0.132,-0.248 -0.544,-1.2 -0.673,-1.441 v 0 c -1.145,-2.129 -2.195,-3.66 -3.069,-5.58 v 0 c -0.232,-0.51 -0.425,-0.938 -0.577,-1.209 v 0 c -0.595,-1.07 -1.129,-2.072 -1.561,-2.988 v 0 c -0.163,-0.342 -0.313,-0.662 -0.456,-0.973 v 0 c -1.097,-2.326 -1.749,-3.721 -1.749,-3.721 v 0 c 0,0 0.727,-0.379 1.984,-1.047 v 0 c 0.665,-0.35 1.479,-0.779 2.415,-1.273 v 0 c 0.569,-0.301 1.182,-0.626 1.835,-0.973 v 0 c 6.839,-3.634 18.458,-7.72 26.488,-12.285 v 0 c 1.483,-0.845 2.866,-1.642 4.092,-2.369 v 0 c 2.165,-1.287 4.344,-2.547 6.528,-3.797 v 0 c 1.102,-0.632 2.264,-1.295 3.463,-1.973 v 0 c 2.377,-1.343 4.841,-2.978 7.261,-4.64 v 0 c 4.54,-3.117 8.923,-6.332 12.276,-7.898 v 0 c 2.353,-1.1 4.085,-1.772 4.788,-1.772 v 0 c 1.374,0 3.862,3.524 6.566,7.973 v 0 c 0.769,1.265 1.562,2.611 2.344,3.969 v 0 c 1.055,1.826 2.1,3.677 3.092,5.414 v 0 c 1.583,2.771 3.023,5.24 4.102,6.8 v 0 c 3.989,5.76 7.97,10.194 8.045,10.282 v 0 c 0.514,3.632 0.949,7.286 1.231,11.037 v 0 c 0.038,0.494 0.073,0.99 0.106,1.492 v 0 c 0.091,1.427 0.159,2.873 0.2,4.338 v 0 c 0.01,0.373 0.019,0.748 0.027,1.125 v 0 c 0.043,2.451 0.008,4.955 -0.126,7.537 v 0 c -0.016,0.294 -0.032,0.588 -0.049,0.883 v 0 c -0.104,1.717 -0.249,3.468 -0.447,5.257 v 0 c -0.022,0.2 -0.046,0.4 -0.069,0.601 v 0 c -0.026,0.22 -0.052,0.443 -0.08,0.665 v 0 c -0.961,7.879 -2.891,16.523 -6.252,26.376 v 0 c -0.646,1.894 -1.306,3.737 -1.977,5.529 v 0 c -6.638,17.728 -14.438,30.601 -21.958,40.485 v 0 c -2.85,3.749 -5.662,7.068 -8.354,10.057 v 0 c -0.82,-0.668 -1.446,-1.37 -1.991,-2.177" />
    </clipPath>
    <clipPath
       id="clipPath4381"
       clipPathUnits="userSpaceOnUse">
      <path
         inkscape:connector-curvature="0"
         id="path4379"
         d="m 361.955,490.761 c -4.56,-5.529 -9.315,-12.081 -13.926,-20.093 v 0 c -0.355,-0.617 -0.707,-1.241 -1.06,-1.874 v 0 c -3.309,-5.946 -6.533,-12.671 -9.54,-20.337 v 0 c -1.039,-2.648 -2.051,-5.406 -3.035,-8.284 v 0 c -7.607,-22.305 -7.878,-38.409 -6.208,-53.447 v 0 c 0.034,-0.292 0.066,-0.589 0.101,-0.886 v 0 c 0.192,-1.654 0.41,-3.301 0.64,-4.942 v 0 c 0,0 2.748,-3.058 5.98,-7.404 v 0 c 0.388,-0.521 0.781,-1.06 1.178,-1.615 v 0 c 0.296,-0.412 0.592,-0.84 0.895,-1.272 v 0 c 1.046,-1.51 2.424,-3.865 3.944,-6.523 v 0 c 0.568,-0.993 1.155,-2.028 1.752,-3.074 v 0 c 3.97,-6.964 8.395,-14.559 10.408,-14.559 v 0 c 0.401,0 1.141,0.219 2.136,0.611 v 0 c 1.296,0.51 3.026,1.314 5.026,2.309 v 0 c 1.774,0.879 3.762,1.91 5.848,3.018 v 0 c 2.261,1.203 4.638,2.498 6.983,3.797 v 0 c 2.253,1.247 4.477,2.499 6.543,3.675 v 0 c 2.066,1.174 3.974,2.274 5.593,3.215 v 0 c 0.959,0.559 1.815,1.06 2.541,1.492 v 0 c 0.512,0.303 1.048,0.618 1.608,0.944 v 0 c 2.223,1.293 4.817,2.757 7.569,4.283 v 0 c 1.599,0.886 3.251,1.795 4.914,2.705 v 0 c 1.188,0.648 2.379,1.297 3.564,1.938 v 0 c 4.357,2.365 8.587,4.622 11.925,6.4 v 0 c 4.113,2.186 6.881,3.64 6.881,3.64 v 0 c -0.63,1.347 -1.26,2.69 -1.888,4.038 v 0 c -0.111,0.238 -0.223,0.482 -0.336,0.722 v 0 c -6.619,14.178 -13.251,28.394 -20.616,42.195 v 0 c -1.382,2.588 -3.395,6.436 -5.76,10.978 v 0 c -0.251,0.484 -0.302,1.41 -0.56,1.908 v 0 c -3.374,6.49 -7.562,13.767 -11.4,21.192 v 0 c -1.358,2.626 -2.693,5.213 -3.984,7.704 v 0 c -0.627,1.211 -1.24,2.397 -1.838,3.549 v 0 c -0.485,0.938 -0.962,1.856 -1.424,2.748 v 0 c -0.126,0.24 -0.251,0.482 -0.375,0.721 v 0 c -0.172,0.334 -0.344,0.663 -0.514,0.99 v 0 c -0.292,0.561 -0.577,1.11 -0.855,1.646 v 0 c -0.221,0.43 -0.444,0.853 -0.658,1.268 v 0 c -0.25,0.48 -0.494,0.947 -0.733,1.402 v 0 c -0.237,0.455 -0.466,0.896 -0.688,1.323 v 0 c -0.233,0.445 -0.458,0.873 -0.675,1.286 v 0 c -0.2,0.38 -0.392,0.746 -0.577,1.099 v 0 c -0.163,0.309 -0.321,0.606 -0.472,0.889 v 0 c -0.556,1.06 -1.065,2.11 -1.657,3.101 v 0 c -0.08,0.133 -0.161,0.265 -0.244,0.396 v 0 c -0.267,0.42 -0.552,0.827 -0.867,1.216 v 0 c -0.044,0.054 -0.088,0.108 -0.133,0.162 v 0 c -0.372,0.445 -0.79,0.864 -1.263,1.247 v 0 c -1.545,-1.713 -3.132,-3.541 -4.743,-5.497" />
    </clipPath>
    <clipPath
       id="clipPath4865"
       clipPathUnits="userSpaceOnUse">
      <path
         inkscape:connector-curvature="0"
         id="path4863"
         d="m 172.325,540.293 c -1.969,-0.393 -3.04,-0.818 -3.04,-1.259 v 0 -1.525 -2.162 -1.608 c 1.145,-0.502 2.258,-0.954 3.348,-1.364 v 0 c 3.562,-1.343 6.85,-2.237 10.035,-2.994 v 0 c 1.845,-0.44 3.654,-0.834 5.464,-1.242 v 0 c 5.882,-1.33 11.843,-2.678 22.58,-3.821 v 0 c 11.635,-1.237 13.686,-1.168 29.698,0.766 v 0 c 12.853,1.55 17.266,2.622 21.461,3.737 v 0 c 3.801,1.01 7.588,2.002 11.281,3.365 v 0 c 1.424,0.526 2.5,0.964 3.206,1.233 v 0 1.87 2.196 1.549 c 0,0.548 -1.649,1.069 -4.618,1.54 v 0 c -8.346,1.323 -27.108,2.246 -48.917,2.246 v 0 c -23.318,0 -43.154,-1.055 -50.498,-2.527" />
    </clipPath>
    <clipPath
       id="clipPath4945"
       clipPathUnits="userSpaceOnUse">
      <path
         inkscape:connector-curvature="0"
         id="path4943"
         d="M 0,800 H 800 V 0 H 0 Z" />
    </clipPath>
    <clipPath
       id="clipPath9640"
       clipPathUnits="userSpaceOnUse">
      <path
         inkscape:connector-curvature="0"
         id="path9638"
         d="M 0,0 H 800 V 800 H 0 Z" />
    </clipPath>
    <radialGradient
       id="radialGradient9650"
       spreadMethod="pad"
       gradientTransform="matrix(591.03998,0,0,-591.03998,400,400)"
       gradientUnits="userSpaceOnUse"
       r="1"
       cy="0"
       cx="0"
       fy="0"
       fx="0">
      <stop
         id="stop9646"
         offset="0"
         style="stop-opacity:1;stop-color:#5a686a" />
      <stop
         id="stop9648"
         offset="1"
         style="stop-opacity:1;stop-color:#1f3235" />
    </radialGradient>
    <clipPath
       id="clipPath9660"
       clipPathUnits="userSpaceOnUse">
      <path
         inkscape:connector-curvature="0"
         id="path9658"
         d="m 621.732,683.117 c -2.31,-2.487 -5.416,-4.945 -9.663,-7.28 v 0 c -9.348,-5.134 -22.401,-6.999 -34.263,-7.221 v 0 c -11.859,0.222 -24.913,2.087 -34.26,7.221 v 0 c -8.147,4.477 -12.103,9.418 -14.277,14.142 v 0 c -0.374,0.815 -0.696,1.625 -0.976,2.424 v 0 c -0.76,-0.283 -1.37,-1.057 -1.872,-2.041 v 0 c -1.05,-2.056 -1.624,-5.027 -2.112,-6.325 v 0 c -0.061,-0.171 -0.304,-0.382 -0.67,-0.625 v 0 c 0.977,-2.304 2.312,-4.554 3.973,-6.699 v 0 c 1.702,-2.198 3.752,-4.286 6.109,-6.209 v 0 c 0.626,-0.508 1.272,-1.005 1.943,-1.493 v 0 c 5.577,-4.041 12.64,-7.192 20.855,-8.838 v 0 c 7.083,-1.414 14.204,-2.034 21.104,-2.056 v 0 c 0.058,0 0.12,0.003 0.183,0.003 v 0 c 0.061,0 0.124,-0.003 0.187,0.006 v 0 c 6.899,0.013 14.018,0.633 21.103,2.047 v 0 c 5.451,1.096 10.392,2.85 14.736,5.085 v 0 c 2.982,1.537 5.682,3.309 8.063,5.246 v 0 c 2.357,1.923 4.402,4.011 6.107,6.209 v 0 c 1.658,2.145 2.995,4.395 3.973,6.699 v 0 c -0.366,0.243 -0.605,0.454 -0.673,0.625 v 0 c -0.484,1.298 -1.063,4.269 -2.112,6.325 v 0 c -0.499,0.984 -1.11,1.758 -1.869,2.041 v 0 c -1.061,-3.016 -2.699,-6.172 -5.589,-9.286" />
    </clipPath>
    <clipPath
       id="clipPath11210"
       clipPathUnits="userSpaceOnUse">
      <path
         inkscape:connector-curvature="0"
         id="path11208"
         d="m 625.34,692.086 c -0.99,-0.605 -3.386,-1.443 -6.834,-2.343 v 0 c -8.702,-2.271 -24.132,-4.94 -40.7,-5.378 v 0 c -13.809,0.362 -26.82,2.279 -35.811,4.222 v 0 c -6.078,1.312 -10.318,2.636 -11.719,3.499 v 0 c -0.759,0.469 -1.414,0.526 -1.983,0.317 v 0 c 0.312,-0.894 0.678,-1.798 1.111,-2.71 v 0 c 0.872,-1.846 2.032,-3.726 3.607,-5.59 v 0 c 1.187,-1.403 2.61,-2.799 4.327,-4.176 v 0 c 1.741,-1.395 3.792,-2.763 6.208,-4.09 v 0 c 2.892,-1.588 6.14,-2.864 9.59,-3.873 v 0 c 7.66,-2.241 16.347,-3.182 24.487,-3.356 v 0 c 0.058,0.005 0.12,0.008 0.183,0.008 v 0 c 0.061,0 0.124,-0.003 0.187,0.007 v 0 c 10.119,0.203 21.094,1.603 29.876,5.216 v 0 c 3.717,1.53 7.264,3.576 10.406,6.088 v 0 c 1.721,1.377 3.143,2.773 4.33,4.176 v 0 c 1.573,1.864 2.731,3.744 3.606,5.59 v 0 c 0.432,0.912 0.796,1.816 1.11,2.71 v 0 c -0.204,0.075 -0.418,0.116 -0.644,0.116 v 0 c -0.406,0 -0.85,-0.131 -1.337,-0.433" />
    </clipPath>
    <clipPath
       id="clipPath18368"
       clipPathUnits="userSpaceOnUse">
      <path
         inkscape:connector-curvature="0"
         id="path18366"
         d="m 599.096,660.173 c -4.779,-0.953 -9.573,-1.546 -14.301,-1.838 v 0 c -2.35,-0.145 -4.68,-0.214 -6.989,-0.215 v 0 c -4.816,0.004 -9.741,0.303 -14.689,0.96 v 0 c -2.197,0.292 -4.398,0.655 -6.598,1.093 v 0 c -6.446,1.291 -12.183,3.509 -17.05,6.358 v 0 c -4.063,2.378 -7.516,5.195 -10.271,8.278 v 0 c -2.415,2.701 -4.288,5.609 -5.559,8.603 v 0 c -1.687,-1.114 -6.368,-2.941 -12.385,-5.086 v 0 c -1.249,-0.443 -2.498,-0.883 -3.745,-1.319 v 0 c -4.842,-1.684 -9.699,-3.308 -14.555,-4.946 v 0 c -7.606,-2.564 -15.198,-5.153 -22.685,-8.042 v 0 c -4.084,-1.573 -8.484,-3.347 -12.805,-5.192 v 0 c -6.419,-2.738 -12.673,-5.638 -17.495,-8.294 v 0 c -2.781,-1.533 -5.086,-2.986 -6.668,-4.282 v 0 c 1.551,-1.722 3.145,-3.559 4.765,-5.52 v 0 c 8.193,-9.942 17.018,-23.192 24.506,-42.281 v 0 c 1.038,-2.648 2.048,-5.407 3.031,-8.284 v 0 c 5.596,-16.404 7.224,-29.455 7.027,-41.194 v 0 c -0.104,-6.301 -0.733,-12.222 -1.557,-18.082 v 0 c 0,0 0.069,-3.276 0.09,-8.778 v 0 c 0.012,-2.678 0.012,-5.883 -0.01,-9.493 v 0 c -0.032,-4.85 -0.103,-10.434 -0.251,-16.46 v 0 c -0.028,-1.223 -0.062,-2.465 -0.099,-3.723 v 0 c -0.452,-15.9 -1.431,-34.311 -3.459,-50.274 v 0 c -0.491,-3.871 -0.956,-7.867 -1.399,-11.94 v 0 c -2.96,-27.333 -4.776,-104.804 -5.455,-122.806 v 0 c -0.2,-5.352 -0.303,-9.584 -0.303,-12.279 v 0 c 0,-4.815 0.239,-9.464 0.547,-13.424 v 0 c 0.523,-6.844 1.242,-11.631 1.242,-11.631 v 0 c 0,0 0.13,-0.062 0.406,-0.189 v 0 c 0.475,-0.213 1.384,-0.598 2.804,-1.108 v 0 c 0.978,-0.347 2.201,-0.76 3.691,-1.209 v 0 c 2.26,-0.679 5.14,-1.459 8.723,-2.27 v 0 c 2.289,-0.521 4.862,-1.056 7.748,-1.589 v 0 c 0.745,-0.139 1.509,-0.275 2.294,-0.414 v 0 c 5.105,-0.891 11.086,-1.772 18.058,-2.565 v 0 c 4.467,-0.509 9.341,-0.982 14.648,-1.402 v 0 c 8.793,-0.701 18.777,-1.252 30.078,-1.572 v 0 c 3.03,-0.086 6.155,-0.157 9.378,-0.207 v 0 c 3.661,-0.057 7.321,-0.051 10.981,-0.045 v 0 c 2.502,0.005 5.004,0.009 7.507,-0.006 v 0 c 5.677,-0.051 11.509,-0.041 17.52,0.051 v 0 c 25.566,0.404 45.016,1.963 59.568,3.845 v 0 c 2.084,0.272 4.068,0.549 5.953,0.83 v 0 c 8.313,1.24 14.743,2.561 19.6,3.764 v 0 c 2.145,0.531 3.985,1.038 5.54,1.502 v 0 c 1.816,0.543 3.253,1.025 4.343,1.426 v 0 c 1.962,0.717 2.818,1.158 2.818,1.158 v 0 c 0,0 0.722,4.787 1.246,11.631 v 0 c 0.308,3.96 0.544,8.609 0.544,13.424 v 0 c 0,2.695 -0.101,6.929 -0.303,12.279 v 0 c -0.677,18.006 -2.495,95.477 -5.452,122.806 v 0 c -0.445,4.073 -0.908,8.069 -1.399,11.94 v 0 c -2.027,15.957 -3.006,34.363 -3.459,50.261 v 0 c -0.035,1.258 -0.069,2.499 -0.098,3.723 v 0 c -0.146,6.024 -0.219,11.609 -0.25,16.463 v 0 c -0.022,3.607 -0.022,6.81 -0.011,9.487 v 0 c 0.023,5.524 0.09,8.815 0.09,8.822 v 0 c -0.825,5.85 -1.453,11.759 -1.56,18.046 v 0 c -0.198,11.747 1.429,24.809 7.027,41.229 v 0 c 0.979,2.869 1.986,5.618 3.022,8.257 v 0 c 7.488,19.093 16.309,32.345 24.502,42.29 v 0 c 1.619,1.964 3.215,3.8 4.766,5.524 v 0 c -3.807,3.105 -11.754,7.118 -20.49,10.974 v 0 c -4.148,1.832 -8.335,3.587 -12.552,5.263 v 0 c -3.612,1.437 -7.251,2.815 -10.91,4.135 v 0 c -9.066,3.272 -21.943,7.46 -31.933,10.968 v 0 c -3.17,1.108 -6.047,2.155 -8.423,3.076 v 0 c -2.862,1.116 -4.993,2.055 -6.016,2.732 v 0 c -4.464,-10.511 -16.348,-19.93 -32.879,-23.239" />
    </clipPath>
    <clipPath
       id="clipPath48496"
       clipPathUnits="userSpaceOnUse">
      <path
         inkscape:connector-curvature="0"
         id="path48494"
         d="m 713.944,636.207 c -7.52,-9.884 -15.32,-22.757 -21.957,-40.484 v 0 c -0.673,-1.793 -1.331,-3.636 -1.978,-5.53 v 0 c -3.36,-9.853 -5.29,-18.497 -6.251,-26.376 v 0 c -0.898,-7.348 -0.952,-14.03 -0.543,-20.407 v 0 c 0.029,-0.5 0.066,-0.997 0.103,-1.491 v 0 c 0.284,-3.751 0.72,-7.405 1.233,-11.038 v 0 c 0.049,-0.058 1.888,-2.108 4.306,-5.209 v 0 c 1.158,-1.483 2.447,-3.208 3.738,-5.072 v 0 c 1.08,-1.561 2.518,-4.029 4.102,-6.801 v 0 c 0.991,-1.736 2.035,-3.587 3.094,-5.414 v 0 c 0.782,-1.356 1.573,-2.702 2.342,-3.969 v 0 c 1.78,-2.93 3.469,-5.459 4.805,-6.845 v 0 c 0.694,-0.718 1.293,-1.128 1.763,-1.128 v 0 c 0.701,0 2.434,0.672 4.787,1.774 v 0 c 2.937,1.371 6.847,3.406 10.931,5.62 v 0 c 3.061,1.659 6.222,3.417 9.149,5.072 v 0 c 1.203,0.677 2.365,1.339 3.464,1.971 v 0 c 2.186,1.251 4.364,2.511 6.529,3.798 v 0 c 1.228,0.727 2.61,1.522 4.093,2.367 v 0 c 4.167,2.37 9.156,5.109 13.948,7.703 v 0 c 2.304,1.248 4.563,2.462 6.663,3.587 v 0 c 1.943,1.04 3.75,2.004 5.332,2.842 v 0 c 0.65,0.347 1.264,0.672 1.833,0.974 v 0 c 0.936,0.492 1.75,0.923 2.415,1.273 v 0 c 1.256,0.667 1.984,1.045 1.984,1.045 v 0 c 0,0 -0.652,1.396 -1.748,3.724 v 0 c -0.143,0.309 -0.294,0.63 -0.456,0.972 v 0 c -1.927,4.088 -4.904,10.384 -8.069,16.987 v 0 c -3.914,8.155 -8.116,16.782 -10.995,22.311 v 0 c -5.33,10.249 -10.72,20.465 -16.026,30.727 v 0 c -2.455,4.743 -4.933,9.545 -7.249,14.019 v 0 c -0.338,0.65 -0.674,1.296 -1,1.932 v 0 c -0.174,0.336 -0.347,0.671 -0.521,1.004 v 0 c -0.104,0.198 -0.206,0.399 -0.312,0.6 v 0 c -0.251,0.483 -0.499,0.963 -0.743,1.435 v 0 c -0.265,0.51 -0.525,1.015 -0.781,1.51 v 0 c -0.536,1.031 -1.053,2.027 -1.549,2.984 v 0 c -0.204,0.391 -0.405,0.777 -0.604,1.152 v 0 c -0.34,0.652 -0.664,1.277 -0.981,1.882 v 0 c -0.136,0.257 -0.267,0.507 -0.391,0.753 v 0 c -0.312,0.599 -0.611,1.171 -0.897,1.715 v 0 c -0.382,0.725 -0.738,1.4 -1.066,2.02 v 0 c -0.323,0.613 -0.62,1.173 -0.884,1.671 v 0 c -0.216,0.403 -0.411,0.765 -0.586,1.085 v 0 c -0.096,0.173 -0.187,0.34 -0.285,0.506 v 0 c -0.128,0.219 -0.257,0.425 -0.395,0.629 v 0 c -0.317,0.468 -0.66,0.901 -1.053,1.311 v 0 c -0.285,0.298 -0.596,0.584 -0.939,0.866 v 0 c -2.692,-2.989 -5.507,-6.308 -8.355,-10.057" />
    </clipPath>
    <clipPath
       id="clipPath62958"
       clipPathUnits="userSpaceOnUse">
      <path
         inkscape:connector-curvature="0"
         id="path62956"
         d="m 431.905,644.842 c -1.137,-1.409 -1.895,-3.054 -2.77,-4.713 v 0 c -0.147,-0.283 -0.304,-0.58 -0.468,-0.889 v 0 c -0.386,-0.735 -0.807,-1.531 -1.252,-2.385 v 0 c -0.447,-0.855 -0.922,-1.766 -1.42,-2.725 v 0 c -0.216,-0.416 -0.438,-0.838 -0.663,-1.268 v 0 c -0.555,-1.071 -1.138,-2.192 -1.743,-3.357 v 0 c -0.462,-0.892 -0.938,-1.81 -1.42,-2.747 v 0 c -0.602,-1.153 -1.215,-2.339 -1.841,-3.549 v 0 c -1.29,-2.492 -2.628,-5.079 -3.984,-7.705 v 0 c -6.902,-13.354 -14.278,-27.628 -17.719,-34.078 v 0 c -7.364,-13.8 -13.997,-28.016 -20.617,-42.195 v 0 c -0.112,-0.241 -0.223,-0.485 -0.336,-0.722 v 0 c -0.629,-1.349 -1.258,-2.692 -1.887,-4.04 v 0 c 0,0 2.768,-1.452 6.879,-3.638 v 0 c 3.34,-1.777 7.571,-4.036 11.927,-6.401 v 0 c 5.697,-3.087 11.61,-6.343 16.047,-8.926 v 0 c 0.56,-0.326 1.098,-0.64 1.607,-0.943 v 0 c 0.726,-0.432 1.582,-0.935 2.543,-1.493 v 0 c 3.234,-1.882 7.624,-4.392 12.133,-6.889 v 0 c 4.51,-2.498 9.134,-4.982 12.831,-6.815 v 0 c 2.001,-0.994 3.73,-1.799 5.026,-2.308 v 0 c 0.997,-0.393 1.735,-0.613 2.135,-0.613 v 0 c 3.133,0 12.079,18.342 16.106,24.157 v 0 c 0.301,0.432 0.599,0.859 0.895,1.272 v 0 c 3.71,5.183 7.159,9.018 7.159,9.018 v 0 c 0.232,1.642 0.447,3.287 0.641,4.942 v 0 c 0.033,0.297 0.065,0.593 0.099,0.887 v 0 c 1.668,15.038 1.397,31.142 -6.21,53.447 v 0 c -0.983,2.877 -1.993,5.636 -3.033,8.285 v 0 c -7.495,19.106 -16.325,32.358 -24.527,42.303 v 0 c -1.611,1.956 -3.198,3.783 -4.742,5.497 v 0 c -0.53,-0.43 -0.989,-0.903 -1.396,-1.409" />
    </clipPath>
    <clipPath
       id="clipPath80442"
       clipPathUnits="userSpaceOnUse">
      <path
         inkscape:connector-curvature="0"
         id="path80440"
         d="m 162.008,530.687 c -2.377,-0.921 -5.255,-1.967 -8.423,-3.076 v 0 c -9.991,-3.508 -22.868,-7.696 -31.933,-10.968 v 0 c -3.657,-1.32 -7.298,-2.698 -10.91,-4.135 v 0 c -4.219,-1.676 -8.405,-3.431 -12.554,-5.263 v 0 c -8.733,-3.856 -16.68,-7.869 -20.487,-10.974 v 0 c 1.55,-1.724 3.145,-3.56 4.763,-5.524 v 0 c 8.195,-9.945 17.017,-23.197 24.505,-42.291 v 0 c 1.034,-2.638 2.042,-5.387 3.021,-8.256 v 0 c 5.599,-16.419 7.226,-29.482 7.024,-41.227 v 0 c -0.105,-6.289 -0.734,-12.198 -1.556,-18.047 v 0 c 0,-0.008 0.067,-3.297 0.089,-8.823 v 0 c 0.011,-2.677 0.011,-5.88 -0.011,-9.486 v 0 c -0.032,-4.855 0.647,-9.297 0.857,-15.5 v 0 c 0.042,-1.225 0.673,-3.717 0.637,-4.975 v 0 c -0.166,-5.82 -0.637,-10.132 -0.776,-17.246 v 0 c -0.014,-0.701 0.248,-2.228 0.171,-2.927 v 0 c -0.428,-3.924 -0.611,-7.418 -1.287,-11.344 v 0 c -0.076,-0.437 -0.528,-3.096 -0.604,-3.533 v 0 c -0.994,-5.702 -2.124,-9.559 -2.804,-14.922 v 0 c -0.491,-3.871 -0.957,-7.867 -1.397,-11.942 v 0 c -0.69,-6.367 -1.318,-15.459 -1.883,-25.884 v 0 c -0.742,-13.672 -1.376,-29.641 -1.904,-44.78 v 0 c -0.125,-3.564 -0.244,-7.078 -0.357,-10.506 v 0 c -0.218,-6.701 -0.416,-13.066 -0.591,-18.801 v 0 c -0.275,-9.003 -0.428,-10.898 -0.64,-15.598 v 0 c -0.279,-6.042 0.086,-4.101 0.434,-7.874 v 0 c 0.534,-5.84 0.03,-7.373 -0.249,-13.324 v 0 c -0.224,-4.807 -0.329,-7.78 -0.022,-11.741 v 0 c 0.523,-6.843 1.244,-11.63 1.244,-11.63 v 0 c 0,0 0.856,-0.443 2.819,-1.16 v 0 c 1.091,-0.399 2.526,-0.883 4.342,-1.424 v 0 c 1.554,-0.465 3.395,-0.973 5.54,-1.504 v 0 c 4.857,-1.202 11.288,-2.524 19.6,-3.762 v 0 c 1.886,-0.283 3.87,-0.558 5.953,-0.83 v 0 c 14.552,-1.885 34.001,-3.443 59.569,-3.846 v 0 c 6.011,-0.093 11.843,-0.101 17.52,-0.053 v 0 c 2.496,0.016 4.995,0.012 7.492,0.008 v 0 c 3.665,-0.007 7.33,-0.013 10.996,0.045 v 0 c 22.492,0.358 40.249,1.604 54.104,3.18 v 0 c 6.971,0.793 12.952,1.674 18.056,2.567 v 0 c 0.785,0.137 1.552,0.275 2.296,0.414 v 0 c 2.886,0.533 5.459,1.068 7.746,1.588 v 0 c 3.582,0.812 6.463,1.589 8.725,2.271 v 0 c 1.49,0.449 2.712,0.861 3.691,1.209 v 0 c 1.42,0.507 2.329,0.893 2.805,1.108 v 0 c 0.273,0.125 0.402,0.189 0.402,0.189 v 0 c 0,0 0.72,4.787 1.243,11.63 v 0 c 0.307,3.961 0.545,8.61 0.545,13.423 v 0 c 0,2.695 -0.099,6.929 -0.301,12.279 v 0 c -0.019,0.515 -0.04,1.076 -0.061,1.685 v 0 c -0.164,4.702 -2.82,17.875 -2.617,26.883 v 0 c 0.124,5.444 0.587,6.514 0.031,12.077 v 0 c -0.179,1.786 0.343,5.488 0.218,9.048 v 0 c -0.528,15.139 -0.402,33.555 -1.142,47.229 v 0 c -0.565,10.425 -1.193,19.517 -1.883,25.884 v 0 c -0.445,4.075 -0.909,8.071 -1.4,11.942 v 0 c -0.68,5.359 -1.243,10.994 -1.707,16.719 v 0 c -0.037,0.439 -0.071,0.878 -0.106,1.32 v 0 c -0.31,3.951 -0.573,7.939 -0.796,11.9 v 0 c -0.039,0.707 -0.079,1.412 -0.117,2.118 v 0 c -0.333,6.248 -0.568,12.4 -0.733,18.217 v 0 c -0.036,1.257 -0.069,2.499 -0.099,3.722 v 0 c -0.145,6.027 -1.714,11.611 -1.743,16.461 v 0 c -0.023,3.609 1.484,3.472 1.484,9.494 v 0 c -0.002,5.5 0.09,8.777 0.09,8.777 v 0 c -0.826,5.86 -1.455,11.782 -1.558,18.08 v 0 c -0.197,11.74 1.432,24.791 7.025,41.195 v 0 c 0.984,2.878 1.996,5.636 3.034,8.283 v 0 c 7.488,19.09 16.313,32.34 24.506,42.282 v 0 c 1.618,1.962 3.212,3.798 4.764,5.52 v 0 c -1.582,1.296 -3.888,2.749 -6.67,4.281 v 0 c -4.82,2.657 -11.074,5.557 -17.493,8.295 v 0 c -4.32,1.845 -8.721,3.619 -12.805,5.192 v 0 c -7.487,2.89 -15.081,5.478 -22.684,8.042 v 0 c -4.855,1.638 -9.716,3.262 -14.553,4.946 v 0 c -1.251,0.436 -2.499,0.875 -3.745,1.319 v 0 c -6.02,2.144 -12.755,3.098 -12.39,5.086 v 0 c 0,0 -5.791,-2.252 -9.284,-3.208 v 0 c -9.729,-2.668 -12.716,-3.235 -24.663,-4.864 v 0 c -8.192,-1.116 -14.332,-1.502 -21.29,-1.508 v 0 c -2.307,0.002 -4.638,0.071 -6.985,0.217 v 0 c -4.731,0.291 -9.524,0.884 -14.303,1.838 v 0 c -16.531,3.307 -18.303,3.39 -30.548,7.845 v 0 c -0.203,-1.209 -4.416,-1.936 -7.277,-3.052" />
    </clipPath>
    <clipPath
       id="clipPath130816"
       clipPathUnits="userSpaceOnUse">
      <path
         inkscape:connector-curvature="0"
         id="path130814"
         d="m 75.71,494.094 c -0.137,-0.204 -0.267,-0.41 -0.397,-0.629 v 0 c -0.098,-0.166 -0.19,-0.333 -0.286,-0.506 v 0 c -0.39,-0.716 -0.884,-1.645 -1.471,-2.756 v 0 c -0.372,-0.707 -0.783,-1.487 -1.226,-2.331 v 0 c -0.235,-0.45 -0.48,-0.918 -0.735,-1.404 v 0 c -0.125,-0.245 -0.257,-0.496 -0.391,-0.753 v 0 c -0.316,-0.605 -0.643,-1.23 -0.981,-1.882 v 0 c -0.199,-0.376 -0.398,-0.762 -0.603,-1.152 v 0 c -0.956,-1.842 -1.987,-3.832 -3.075,-5.929 v 0 c -0.105,-0.201 -0.209,-0.402 -0.311,-0.6 v 0 c -0.173,-0.333 -0.348,-0.667 -0.522,-1.004 v 0 c -0.326,-0.636 -0.663,-1.281 -0.998,-1.933 v 0 c -2.317,-4.473 -4.795,-9.275 -7.251,-14.018 v 0 C 52.16,448.935 46.769,438.719 41.437,428.47 v 0 c -2.879,-5.529 -5.712,-13.139 -9.811,-21.2 v 0 c -0.403,-0.794 -0.341,-0.877 -0.651,-1.465 v 0 c -0.155,-0.297 -0.393,-0.993 -0.791,-1.767 v 0 c -0.818,-1.591 -1.161,-2.214 -1.929,-3.648 v 0 c -0.132,-0.248 -0.544,-1.2 -0.673,-1.441 v 0 c -1.145,-2.129 -2.195,-3.66 -3.069,-5.58 v 0 c -0.232,-0.51 -0.425,-0.938 -0.577,-1.209 v 0 c -0.595,-1.07 -1.129,-2.072 -1.561,-2.988 v 0 c -0.163,-0.342 -0.313,-0.662 -0.456,-0.973 v 0 c -1.097,-2.326 -1.749,-3.721 -1.749,-3.721 v 0 c 0,0 0.727,-0.379 1.984,-1.047 v 0 c 0.665,-0.35 1.479,-0.779 2.415,-1.273 v 0 c 0.569,-0.301 1.182,-0.626 1.835,-0.973 v 0 c 6.839,-3.634 18.458,-7.72 26.488,-12.285 v 0 c 1.483,-0.845 2.866,-1.642 4.092,-2.369 v 0 c 2.165,-1.287 4.344,-2.547 6.528,-3.797 v 0 c 1.102,-0.632 2.264,-1.295 3.463,-1.973 v 0 c 2.377,-1.343 4.841,-2.978 7.261,-4.64 v 0 c 4.54,-3.117 8.923,-6.332 12.276,-7.898 v 0 c 2.353,-1.1 4.085,-1.772 4.788,-1.772 v 0 c 1.374,0 3.862,3.524 6.566,7.973 v 0 c 0.769,1.265 1.562,2.611 2.344,3.969 v 0 c 1.055,1.826 2.1,3.677 3.092,5.414 v 0 c 1.583,2.771 3.023,5.24 4.102,6.8 v 0 c 3.989,5.76 7.97,10.194 8.045,10.282 v 0 c 0.514,3.632 0.949,7.286 1.231,11.037 v 0 c 0.038,0.494 0.073,0.99 0.106,1.492 v 0 c 0.091,1.427 0.159,2.873 0.2,4.338 v 0 c 0.01,0.373 0.019,0.748 0.027,1.125 v 0 c 0.043,2.451 0.008,4.955 -0.126,7.537 v 0 c -0.016,0.294 -0.032,0.588 -0.049,0.883 v 0 c -0.104,1.717 -0.249,3.468 -0.447,5.257 v 0 c -0.022,0.2 -0.046,0.4 -0.069,0.601 v 0 c -0.026,0.22 -0.052,0.443 -0.08,0.665 v 0 c -0.961,7.879 -2.891,16.523 -6.252,26.376 v 0 c -0.646,1.894 -1.306,3.737 -1.977,5.529 v 0 c -6.638,17.728 -14.438,30.601 -21.958,40.485 v 0 c -2.85,3.749 -5.662,7.068 -8.354,10.057 v 0 c -0.82,-0.668 -1.446,-1.37 -1.991,-2.177" />
    </clipPath>
    <clipPath
       id="clipPath147614"
       clipPathUnits="userSpaceOnUse">
      <path
         inkscape:connector-curvature="0"
         id="path147612"
         d="m 361.955,490.761 c -4.56,-5.529 -9.315,-12.081 -13.926,-20.093 v 0 c -0.355,-0.617 -0.707,-1.241 -1.06,-1.874 v 0 c -3.309,-5.946 -6.533,-12.671 -9.54,-20.337 v 0 c -1.039,-2.648 -2.051,-5.406 -3.035,-8.284 v 0 c -7.607,-22.305 -7.878,-38.409 -6.208,-53.447 v 0 c 0.034,-0.292 0.066,-0.589 0.101,-0.886 v 0 c 0.192,-1.654 0.41,-3.301 0.64,-4.942 v 0 c 0,0 2.748,-3.058 5.98,-7.404 v 0 c 0.388,-0.521 0.781,-1.06 1.178,-1.615 v 0 c 0.296,-0.412 0.592,-0.84 0.895,-1.272 v 0 c 1.046,-1.51 2.424,-3.865 3.944,-6.523 v 0 c 0.568,-0.993 1.155,-2.028 1.752,-3.074 v 0 c 3.97,-6.964 8.395,-14.559 10.408,-14.559 v 0 c 0.401,0 1.141,0.219 2.136,0.611 v 0 c 1.296,0.51 3.026,1.314 5.026,2.309 v 0 c 1.774,0.879 3.762,1.91 5.848,3.018 v 0 c 2.261,1.203 4.638,2.498 6.983,3.797 v 0 c 2.253,1.247 4.477,2.499 6.543,3.675 v 0 c 2.066,1.174 3.974,2.274 5.593,3.215 v 0 c 0.959,0.559 1.815,1.06 2.541,1.492 v 0 c 0.512,0.303 1.048,0.618 1.608,0.944 v 0 c 2.223,1.293 4.817,2.757 7.569,4.283 v 0 c 1.599,0.886 3.251,1.795 4.914,2.705 v 0 c 1.188,0.648 2.379,1.297 3.564,1.938 v 0 c 4.357,2.365 8.587,4.622 11.925,6.4 v 0 c 4.113,2.186 6.881,3.64 6.881,3.64 v 0 c -0.63,1.347 -1.26,2.69 -1.888,4.038 v 0 c -0.111,0.238 -0.223,0.482 -0.336,0.722 v 0 c -6.619,14.178 -13.251,28.394 -20.616,42.195 v 0 c -1.382,2.588 -3.395,6.436 -5.76,10.978 v 0 c -0.251,0.484 -0.302,1.41 -0.56,1.908 v 0 c -3.374,6.49 -7.562,13.767 -11.4,21.192 v 0 c -1.358,2.626 -2.693,5.213 -3.984,7.704 v 0 c -0.627,1.211 -1.24,2.397 -1.838,3.549 v 0 c -0.485,0.938 -0.962,1.856 -1.424,2.748 v 0 c -0.126,0.24 -0.251,0.482 -0.375,0.721 v 0 c -0.172,0.334 -0.344,0.663 -0.514,0.99 v 0 c -0.292,0.561 -0.577,1.11 -0.855,1.646 v 0 c -0.221,0.43 -0.444,0.853 -0.658,1.268 v 0 c -0.25,0.48 -0.494,0.947 -0.733,1.402 v 0 c -0.237,0.455 -0.466,0.896 -0.688,1.323 v 0 c -0.233,0.445 -0.458,0.873 -0.675,1.286 v 0 c -0.2,0.38 -0.392,0.746 -0.577,1.099 v 0 c -0.163,0.309 -0.321,0.606 -0.472,0.889 v 0 c -0.556,1.06 -1.065,2.11 -1.657,3.101 v 0 c -0.08,0.133 -0.161,0.265 -0.244,0.396 v 0 c -0.267,0.42 -0.552,0.827 -0.867,1.216 v 0 c -0.044,0.054 -0.088,0.108 -0.133,0.162 v 0 c -0.372,0.445 -0.79,0.864 -1.263,1.247 v 0 c -1.545,-1.713 -3.132,-3.541 -4.743,-5.497" />
    </clipPath>
    <clipPath
       id="clipPath164430"
       clipPathUnits="userSpaceOnUse">
      <path
         inkscape:connector-curvature="0"
         id="path164428"
         d="m 172.325,540.293 c -1.969,-0.393 -3.04,-0.818 -3.04,-1.259 v 0 -1.525 -2.162 -1.608 c 1.145,-0.502 2.258,-0.954 3.348,-1.364 v 0 c 3.562,-1.343 6.85,-2.237 10.035,-2.994 v 0 c 1.845,-0.44 3.654,-0.834 5.464,-1.242 v 0 c 5.882,-1.33 11.843,-2.678 22.58,-3.821 v 0 c 11.635,-1.237 13.686,-1.168 29.698,0.766 v 0 c 12.853,1.55 17.266,2.622 21.461,3.737 v 0 c 3.801,1.01 7.588,2.002 11.281,3.365 v 0 c 1.424,0.526 2.5,0.964 3.206,1.233 v 0 1.87 2.196 1.549 c 0,0.548 -1.649,1.069 -4.618,1.54 v 0 c -8.346,1.323 -27.108,2.246 -48.917,2.246 v 0 c -23.318,0 -43.154,-1.055 -50.498,-2.527" />
    </clipPath>
    <clipPath
       id="clipPath168368"
       clipPathUnits="userSpaceOnUse">
      <path
         inkscape:connector-curvature="0"
         id="path168366"
         d="M 0,800 H 800 V 0 H 0 Z" />
    </clipPath>
    <filter
       inkscape:collect="always"
       style="color-interpolation-filters:sRGB"
       id="filter248697"
       x="-0.10006188"
       width="1.2001238"
       y="-0.10154909"
       height="1.2030982">
      <feGaussianBlur
         inkscape:collect="always"
         stdDeviation="5.6985099"
         id="feGaussianBlur248699" />
    </filter>
  </defs>
  <sodipodi:namedview
     id="base"
     pagecolor="#ffffff"
     bordercolor="#666666"
     borderopacity="1.0"
     inkscape:pageopacity="0.0"
     inkscape:pageshadow="2"
     inkscape:zoom="0.35"
     inkscape:cx="400"
     inkscape:cy="560"
     inkscape:document-units="mm"
     inkscape:current-layer="layer1"
     showgrid="false"
     inkscape:snap-bbox="true"
     inkscape:bbox-paths="true"
     inkscape:bbox-nodes="true"
     inkscape:snap-bbox-edge-midpoints="true"
     inkscape:snap-bbox-midpoints="true"
     inkscape:object-paths="true"
     inkscape:snap-intersection-paths="true"
     inkscape:snap-smooth-nodes="true" />
  <metadata
     id="metadata5">
    <rdf:RDF>
      <cc:Work
         rdf:about="">
        <dc:format>image/svg+xml</dc:format>
        <dc:type
           rdf:resource="http://purl.org/dc/dcmitype/StillImage" />
        <dc:title></dc:title>
      </cc:Work>
    </rdf:RDF>
  </metadata>
  <g
     inkscape:label="Layer 1"
     inkscape:groupmode="layer"
     id="layer1"
     transform="translate(0,-87)">
    <g
       id="g835"
       transform="matrix(0.3089066,0,0,0.3089066,-151.54174,43.685152)" />
    <g
       id="g837"
       transform="matrix(0.3089066,0,0,0.3089066,-151.54174,43.685152)" />
    <g
       id="g839"
       transform="matrix(0.3089066,0,0,0.3089066,-151.54174,43.685152)" />
    <g
       id="g841"
       transform="matrix(0.3089066,0,0,0.3089066,-151.54174,43.685152)" />
    <g
       id="g843"
       transform="matrix(0.3089066,0,0,0.3089066,-151.54174,43.685152)" />
    <g
       id="g845"
       transform="matrix(0.3089066,0,0,0.3089066,-151.54174,43.685152)" />
    <g
       id="g847"
       transform="matrix(0.3089066,0,0,0.3089066,-151.54174,43.685152)" />
    <g
       id="g849"
       transform="matrix(0.3089066,0,0,0.3089066,-151.54174,43.685152)" />
    <g
       id="g851"
       transform="matrix(0.3089066,0,0,0.3089066,-151.54174,43.685152)" />
    <g
       id="g853"
       transform="matrix(0.3089066,0,0,0.3089066,-151.54174,43.685152)" />
    <g
       id="g855"
       transform="matrix(0.3089066,0,0,0.3089066,-151.54174,43.685152)" />
    <g
       id="g857"
       transform="matrix(0.3089066,0,0,0.3089066,-151.54174,43.685152)" />
    <g
       id="g859"
       transform="matrix(0.3089066,0,0,0.3089066,-151.54174,43.685152)" />
    <g
       id="g861"
       transform="matrix(0.3089066,0,0,0.3089066,-151.54174,43.685152)" />
    <g
       id="g863"
       transform="matrix(0.3089066,0,0,0.3089066,-151.54174,43.685152)" />
    <g
       id="g248274"
       transform="translate(-251.52479,90.067251)">
      <path
         d="m 114.68279,139.61697 -18.550514,-10.71015 -10e-7,-21.42029 18.550515,-10.710144 18.55052,10.710144 0,21.42029 z"
         inkscape:randomized="0"
         inkscape:rounded="0"
         inkscape:flatsided="true"
         sodipodi:arg2="2.0943951"
         sodipodi:arg1="1.5707963"
         sodipodi:r2="18.550514"
         sodipodi:r1="21.420292"
         sodipodi:cy="118.19668"
         sodipodi:cx="114.68279"
         sodipodi:sides="6"
         id="path248238"
         style="opacity:1;fill:#ffffff;fill-opacity:1;stroke:none;stroke-width:0.72123009;stroke-miterlimit:4;stroke-dasharray:none;stroke-opacity:0.98431373"
         sodipodi:type="star" />
      <g
         id="g248255"
         transform="matrix(1.0093336,0,0,1.0093336,18.6346,7.6559974)"
         style="fill:#424f5e;fill-opacity:1">
        <path
           inkscape:connector-curvature="0"
           id="path248253"
           d="m 105.05275,97.672808 c -0.42714,7.3e-4 -0.95675,0.12042 -1.58884,0.3589 -0.91951,0.34679 -1.71737,0.72851 -2.39417,1.14502 l -0.98874,0.62434 c -1.613719,-0.45104 -3.279144,-0.67649 -4.996303,-0.67649 -1.717251,0 -3.382521,0.22545 -4.996146,0.67649 -0.277611,-0.19102 -0.646096,-0.42531 -1.105985,-0.70256 -0.45989,-0.27715 -1.183927,-0.61123 -2.172788,-1.00185 -0.988682,-0.39035 -1.734799,-0.50749 -2.237891,-0.35128 -0.763384,1.96041 -0.823878,3.729562 -0.181892,5.308092 -1.370373,1.47436 -2.055846,3.26138 -2.055846,5.36023 0,1.47437 0.177791,2.77558 0.533325,3.90343 0.355353,1.12721 0.8109,2.03788 1.36594,2.73218 0.55513,0.6943 1.253293,1.27499 2.094877,1.74345 0.841215,0.46854 1.656617,0.80662 2.445701,1.01496 0.789542,0.20835 1.6784,0.36436 2.667082,0.46853 -0.693663,0.6244 -1.118644,1.51822 -1.274765,2.68034 -0.364468,0.17344 -0.754884,0.30383 -1.170936,0.39077 -0.41651,0.0864 -0.910831,0.1299 -1.483186,0.1299 -0.572355,0 -1.140657,-0.18645 -1.704261,-0.55985 -0.564065,-0.37303 -1.044963,-0.91476 -1.444154,-1.6262 -0.329651,-0.55494 -0.750302,-1.00595 -1.261959,-1.35282 -0.512022,-0.34715 -0.940972,-0.55508 -1.288029,-0.62435 l -0.520365,-0.0781 c -0.364468,0 -0.615657,0.0387 -0.754553,0.11663 -0.138907,0.0783 -0.182095,0.17808 -0.130053,0.29975 0.05204,0.12103 0.130046,0.24257 0.234035,0.36424 0.104173,0.12131 0.216863,0.22588 0.338168,0.31255 l 0.182197,0.13021 c 0.3816,0.17344 0.758872,0.50309 1.131905,0.98904 0.373032,0.48532 0.646064,0.92791 0.819502,1.32646 l 0.26026,0.59888 c 0.225569,0.65903 0.607171,1.19225 1.144711,1.60028 0.537815,0.4073 1.118834,0.6674 1.743597,0.78032 0.624394,0.11283 1.227319,0.17328 1.808243,0.18204 0.581197,0.009 1.062551,-0.0217 1.444154,-0.091 l 0.59858,-0.10413 c 0,0.6593 0.0043,1.55249 0.01311,2.68034 0.0086,1.12749 0.01311,1.7179 0.01311,1.76967 0,0.38151 -0.09515,0.67217 -0.286178,0.87149 -0.190938,0.19969 -0.38154,0.31252 -0.572204,0.33878 -0.190754,0.0255 -0.477208,0.0387 -0.858533,0.0387 4.71597,2.12161 12.77218,1.32098 12.68548,-0.027 -0.14783,-0.0172 -0.31614,-0.0606 -0.50771,-0.1299 -0.19075,-0.0699 -0.32923,-0.19525 -0.41654,-0.37735 -0.0868,-0.18218 -0.1299,-0.4205 -0.1299,-0.71552 v -6.21923 c 0,-1.68298 -0.450913,-2.9142 -1.352373,-3.69454 0.98877,-0.10417 1.877723,-0.2608 2.667083,-0.46914 0.78945,-0.20771 1.60476,-0.54632 2.44616,-1.01451 0.84122,-0.46873 1.54393,-1.0452 2.10754,-1.73048 0.56424,-0.68519 1.02363,-1.5961 1.3789,-2.73234 0.35553,-1.13596 0.53332,-2.44159 0.53332,-3.91623 0,-2.09885 -0.68563,-3.88584 -2.056,-5.36039 0.64244,-1.57844 0.57268,-3.347682 -0.20766,-5.308092 -0.15186,-0.0488 -0.32484,-0.0731 -0.51899,-0.0727 z M 82.321342,117.8312 c 0.04797,-3e-5 0.104502,0.01 0.169542,0.0293 0.173426,0.087 0.234144,0.19119 0.182196,0.31286 -0.08649,0.12167 -0.199545,0.13872 -0.338169,0.0517 -0.173423,-0.0864 -0.234146,-0.19057 -0.182196,-0.31224 0.03252,-0.0544 0.08868,-0.0815 0.168627,-0.0816 z m 0.821485,0.66978 c 0.08131,-0.004 0.176158,0.0426 0.284501,0.13997 0.156394,0.19121 0.173753,0.32998 0.05245,0.41638 -0.104173,0.12158 -0.242827,0.0954 -0.416536,-0.0779 -0.156123,-0.19085 -0.173449,-0.32968 -0.05214,-0.41608 0.03906,-0.0392 0.08295,-0.0599 0.131731,-0.0624 z m 0.847099,1.01375 c 0.09353,0.005 0.183684,0.0787 0.270321,0.21924 0.156215,0.20826 0.156215,0.37302 0,0.4946 -0.138985,0.10426 -0.28618,0.0438 -0.442302,-0.18204 -0.156303,-0.22521 -0.156303,-0.38183 0,-0.46823 0.05855,-0.0457 0.115864,-0.0668 0.171981,-0.0636 z m 0.941018,1.13404 c 0.09513,0.002 0.201258,0.0613 0.318195,0.17823 0.208253,0.19084 0.243033,0.35555 0.104135,0.49399 -0.138805,0.15648 -0.312323,0.13025 -0.520213,-0.0775 -0.225844,-0.19148 -0.260346,-0.35567 -0.104134,-0.49475 0.06073,-0.0682 0.128027,-0.10148 0.202017,-0.10001 z m 1.389876,0.87896 c 0.05313,10e-4 0.112244,0.0105 0.177318,0.0277 0.277519,0.0873 0.390299,0.22566 0.338168,0.41624 -0.06926,0.20798 -0.234089,0.2599 -0.494293,0.15627 -0.294652,-0.0697 -0.407435,-0.19952 -0.338169,-0.39046 0.05202,-0.14354 0.157595,-0.21316 0.316976,-0.20979 z m 3.294173,0.0723 c 0.21627,-0.006 0.339584,0.075 0.369729,0.24181 0.03491,0.17335 -0.08636,0.29498 -0.364241,0.36424 -0.277519,0.0695 -0.43359,-5e-5 -0.468222,-0.20812 -0.03482,-0.20798 0.08651,-0.33839 0.364393,-0.39016 0.03469,-0.004 0.06744,-0.007 0.09834,-0.008 z m -1.478002,0.20918 c 0.225821,-0.002 0.338779,0.096 0.338779,0.29304 0,0.19057 -0.138773,0.28603 -0.416384,0.28603 -0.294747,0.0346 -0.442303,-0.0606 -0.442303,-0.28603 0,-0.19121 0.13862,-0.28602 0.416231,-0.28602 0.03687,-0.004 0.07142,-0.007 0.103677,-0.007 z"
           style="opacity:1;fill:#424f5e;fill-opacity:1;stroke:none;stroke-width:0.96423429;stroke-miterlimit:4;stroke-dasharray:none;stroke-opacity:0.98431373"
           sodipodi:nodetypes="ccccscccccscccccccscccccccccccccccccccsccccccsscccccscccccccccccccccccccccccccccccccccccccccccccccccscsccc" />
      </g>
    </g>
    <g
       id="g248767"
       transform="translate(0,17.10525)">
      <path
         sodipodi:nodetypes="sccccccccsccs"
         inkscape:connector-curvature="0"
         id="path248735"
         d="M 162.80055,111.81463 C 138.37072,145.54434 143.65212,230.5355 143.65212,230.5355 h 21.70156 c 0,0 -5.74455,-88.29236 5.74454,-87.01579 -1.91484,29.00526 -0.16413,47.01385 -5.74454,87.01579 h 91.27427 c -7.02111,-22.97819 -6.38283,-87.01579 -6.38283,-87.01579 12.12738,6.38283 7.65933,87.01579 7.65933,87.01579 h 21.702 c 0,0 4.00454,-84.99116 -20.42537,-118.72087 -5.26691,-7.27189 -21.70155,-15.957077 -21.70155,-15.957077 -16.35205,3.59452 -33.25779,5.666377 -52.97743,0 0,0 -16.43465,8.685187 -21.70155,15.957077 z"
         style="opacity:1;fill:#1a1a1a;fill-opacity:1;stroke:none;stroke-width:1.08723366;stroke-miterlimit:4;stroke-dasharray:none;stroke-opacity:0.98431373;filter:url(#filter248697)" />
      <g
         transform="translate(-68.035714,-24.568452)"
         id="g248537">
        <path
           sodipodi:nodetypes="sccccccccsccs"
           inkscape:connector-curvature="0"
           id="path248352"
           d="m 230.83626,136.38309 c -24.42982,33.72971 -19.14842,118.72086 -19.14842,118.72086 h 21.70156 c 0,0 -5.74455,-88.29235 5.74454,-87.01578 -1.91485,29.00526 -0.16414,47.01385 -5.74454,87.01578 h 91.27427 c -7.02112,-22.97818 -6.38284,-87.01578 -6.38284,-87.01578 12.12738,6.38282 7.65934,87.01578 7.65934,87.01578 h 21.70199 c 0,0 4.00454,-84.99115 -20.42536,-118.72086 -5.26692,-7.27189 -21.70156,-15.95708 -21.70156,-15.95708 -16.35205,3.59452 -33.25778,5.66638 -52.97742,0 0,0 -16.43466,8.68519 -21.70156,15.95708 z"
           style="opacity:1;fill:#424f5e;fill-opacity:1;stroke:none;stroke-width:1.08723366;stroke-miterlimit:4;stroke-dasharray:none;stroke-opacity:0.98431373" />
        <g
           id="g248396"
           transform="matrix(1.1235418,0,0,1.1235418,165.06956,-62.399414)">
          <path
             d="m 89.345995,191.57785 v -2.07222 h -1.705322 v -0.85783 h 2.738851 v 3.31246 q -0.604614,0.42891 -1.333252,0.65112 -0.728638,0.21704 -1.55546,0.21704 -1.808676,0 -2.831869,-1.0542 -1.018026,-1.05937 -1.018026,-2.94556 0,-1.89135 1.018026,-2.94555 1.023193,-1.05937 2.831869,-1.05937 0.754475,0 1.431437,0.18604 0.682129,0.18603 1.255737,0.54777 v 1.11104 q -0.578776,-0.49093 -1.229899,-0.73897 -0.651123,-0.24805 -1.369426,-0.24805 -1.415934,0 -2.129068,0.79065 -0.707968,0.79065 -0.707968,2.35644 0,1.56063 0.707968,2.35128 0.713134,0.79065 2.129068,0.79065 0.552938,0 0.98702,-0.093 0.434082,-0.0982 0.780314,-0.29972 z"
             style="font-style:normal;font-weight:normal;font-size:medium;line-height:125%;font-family:sans-serif;letter-spacing:0px;word-spacing:0px;fill:#ffffff;fill-opacity:1;stroke:none;stroke-width:0.26458332px;stroke-linecap:butt;stroke-linejoin:miter;stroke-opacity:1"
             id="path248380"
             inkscape:connector-curvature="0" />
          <path
             d="m 92.25021,186.8908 h 0.950847 v 5.78776 H 92.25021 Z m 0,-2.25309 h 0.950847 v 1.20406 H 92.25021 Z"
             style="font-style:normal;font-weight:normal;font-size:medium;line-height:125%;font-family:sans-serif;letter-spacing:0px;word-spacing:0px;fill:#ffffff;fill-opacity:1;stroke:none;stroke-width:0.26458332px;stroke-linecap:butt;stroke-linejoin:miter;stroke-opacity:1"
             id="path248382"
             inkscape:connector-curvature="0" />
          <path
             d="m 96.125942,185.24749 v 1.64331 h 1.958537 v 0.73897 h -1.958537 v 3.14193 q 0,0.70797 0.191203,0.9095 0.19637,0.20154 0.790649,0.20154 h 0.976685 v 0.79582 h -0.976685 q -1.100708,0 -1.519287,-0.40825 -0.418579,-0.41341 -0.418579,-1.49861 v -3.14193 h -0.697632 v -0.73897 h 0.697632 v -1.64331 z"
             style="font-style:normal;font-weight:normal;font-size:medium;line-height:125%;font-family:sans-serif;letter-spacing:0px;word-spacing:0px;fill:#ffffff;fill-opacity:1;stroke:none;stroke-width:0.26458332px;stroke-linecap:butt;stroke-linejoin:miter;stroke-opacity:1"
             id="path248384"
             inkscape:connector-curvature="0" />
          <rect
             y="184.15019"
             x="98.822906"
             height="9.1444845"
             width="21.314745"
             id="rect248386"
             style="opacity:1;fill:#ffffff;fill-opacity:1;stroke:none;stroke-width:1.69275284;stroke-miterlimit:4;stroke-dasharray:none;stroke-opacity:0.98431373" />
          <path
             d="m 106.82928,190.39446 v -3.50366 h 0.95084 v 3.46749 q 0,0.82165 0.3204,1.23506 0.32039,0.40825 0.96118,0.40825 0.76998,0 1.2144,-0.49093 0.44958,-0.49093 0.44958,-1.33842 v -3.28145 h 0.95085 v 5.78776 h -0.95085 v -0.88884 q -0.34623,0.5271 -0.80615,0.78549 -0.45475,0.25321 -1.05937,0.25321 -0.99735,0 -1.51412,-0.62012 -0.51676,-0.62011 -0.51676,-1.81384 z m 2.39262,-3.64319 z"
             style="font-style:normal;font-weight:normal;font-size:medium;line-height:125%;font-family:sans-serif;letter-spacing:0px;word-spacing:0px;fill:#424f5e;fill-opacity:1;stroke:none;stroke-width:0.26458332px;stroke-linecap:butt;stroke-linejoin:miter;stroke-opacity:1"
             id="path248388"
             inkscape:connector-curvature="0" />
          <path
             d="m 117.80018,189.78985 q 0,-1.04904 -0.43408,-1.64331 -0.42891,-0.59945 -1.18339,-0.59945 -0.75447,0 -1.18856,0.59945 -0.42891,0.59427 -0.42891,1.64331 0,1.04903 0.42891,1.64847 0.43409,0.59428 1.18856,0.59428 0.75448,0 1.18339,-0.59428 0.43408,-0.59944 0.43408,-1.64847 z m -3.23494,-2.02055 q 0.29972,-0.51677 0.75448,-0.76481 0.45992,-0.25322 1.09554,-0.25322 1.0542,0 1.71049,0.83716 0.66145,0.83716 0.66145,2.20142 0,1.36425 -0.66145,2.20141 -0.65629,0.83716 -1.71049,0.83716 -0.63562,0 -1.09554,-0.24805 -0.45476,-0.25321 -0.75448,-0.76998 v 0.86817 h -0.95601 v -8.04085 h 0.95601 z"
             style="font-style:normal;font-weight:normal;font-size:medium;line-height:125%;font-family:sans-serif;letter-spacing:0px;word-spacing:0px;fill:#424f5e;fill-opacity:1;stroke:none;stroke-width:0.26458332px;stroke-linecap:butt;stroke-linejoin:miter;stroke-opacity:1"
             id="path248390"
             inkscape:connector-curvature="0" />
          <text
             id="text248394"
             y="192.51578"
             x="98.617897"
             style="font-style:normal;font-weight:normal;font-size:10.58333302px;line-height:125%;font-family:sans-serif;letter-spacing:0px;word-spacing:0px;fill:#424f5e;fill-opacity:1;stroke:none;stroke-width:0.26458332px;stroke-linecap:butt;stroke-linejoin:miter;stroke-opacity:1"
             xml:space="preserve"><tspan
               style="fill:#424f5e;fill-opacity:1;stroke-width:0.26458332px"
               y="192.51578"
               x="98.617897"
               id="tspan248392"
               sodipodi:role="line">H</tspan></text>
        </g>
        <text
           xml:space="preserve"
           style="font-style:normal;font-weight:normal;font-size:2.36980438px;line-height:125%;font-family:sans-serif;letter-spacing:0px;word-spacing:0px;fill:#ffffff;fill-opacity:1;stroke:none;stroke-width:0.0592451px;stroke-linecap:butt;stroke-linejoin:miter;stroke-opacity:1"
           x="265.34439"
           y="158.82684"
           id="text248400"><tspan
             sodipodi:role="line"
             id="tspan248398"
             x="265.34439"
             y="158.82684"
             style="fill:#ffffff;stroke-width:0.0592451px">github.com/ahmadbasir</tspan></text>
      </g>
      <path
         style="opacity:1;fill:#1a1a1a;fill-opacity:1;stroke:none;stroke-width:1.08723366;stroke-miterlimit:4;stroke-dasharray:none;stroke-opacity:0.98431373;filter:url(#filter248697)"
         d="M 39.47057,136.38309 C 15.040746,170.1128 20.322144,255.10396 20.322144,255.10396 h 21.701557 c 0,0 -5.744545,-88.29236 5.744547,-87.01579 -1.914849,29.00526 -0.164138,47.01385 -5.744547,87.01579 h 91.274269 c -7.02111,-22.97819 -6.38283,-87.01579 -6.38283,-87.01579 12.12738,6.38283 7.65933,87.01579 7.65933,87.01579 h 21.702 c 0,0 4.00454,-84.99116 -20.42537,-118.72087 -5.26691,-7.27189 -21.70155,-15.95708 -21.70155,-15.95708 -16.352047,3.59452 -33.257784,5.66638 -52.977423,0 0,0 -16.434657,8.68519 -21.701557,15.95708 z"
         id="path248539"
         inkscape:connector-curvature="0"
         sodipodi:nodetypes="sccccccccsccs" />
      <g
         id="g248555">
        <path
           style="opacity:1;fill:#424f5e;fill-opacity:1;stroke:none;stroke-width:1.08723366;stroke-miterlimit:4;stroke-dasharray:none;stroke-opacity:0.98431373"
           d="M 39.47057,136.38309 C 15.040746,170.1128 20.322144,255.10396 20.322144,255.10396 h 21.701557 c 0,0 -5.744545,-88.29236 5.744547,-87.01579 -1.914849,29.00526 -0.164138,47.01385 -5.744547,87.01579 h 91.274269 c -7.02111,-22.97819 -6.38283,-87.01579 -6.38283,-87.01579 12.12738,6.38283 7.65933,87.01579 7.65933,87.01579 h 21.702 c 0,0 4.00454,-84.99116 -20.42537,-118.72087 -5.26691,-7.27189 -21.70155,-15.95708 -21.70155,-15.95708 -16.352047,3.59452 -33.257784,5.66638 -52.977423,0 0,0 -16.434657,8.68519 -21.701557,15.95708 z"
           id="rect247925"
           inkscape:connector-curvature="0"
           sodipodi:nodetypes="sccccccccsccs" />
        <g
           id="g248179"
           transform="matrix(0.48705525,0,0,0.48705525,36.818158,94.553892)">
          <circle
             r="30.238094"
             cy="132.95833"
             cx="105.45536"
             id="path248174"
             style="opacity:1;fill:#ffffff;fill-opacity:1;stroke:none;stroke-width:1.52214789;stroke-miterlimit:4;stroke-dasharray:none;stroke-opacity:0.98431373" />
          <g
             style="fill:#424f5e;fill-opacity:1"
             transform="matrix(1.5235225,0,0,1.5235225,-38.724308,-32.613064)"
             id="g248132">
            <path
               sodipodi:nodetypes="ccccscccccscccccccscccccccccccccccccccsccccccsscccccscccccccccccccccccccccccccccccccccccccccccccccccscsccc"
               style="opacity:1;fill:#424f5e;fill-opacity:1;stroke:none;stroke-width:0.96423429;stroke-miterlimit:4;stroke-dasharray:none;stroke-opacity:0.98431373"
               d="m 105.05275,97.672808 c -0.42714,7.3e-4 -0.95675,0.12042 -1.58884,0.3589 -0.91951,0.34679 -1.71737,0.72851 -2.39417,1.14502 l -0.98874,0.62434 c -1.613719,-0.45104 -3.279144,-0.67649 -4.996303,-0.67649 -1.717251,0 -3.382521,0.22545 -4.996146,0.67649 -0.277611,-0.19102 -0.646096,-0.42531 -1.105985,-0.70256 -0.45989,-0.27715 -1.183927,-0.61123 -2.172788,-1.00185 -0.988682,-0.39035 -1.734799,-0.50749 -2.237891,-0.35128 -0.763384,1.96041 -0.823878,3.729562 -0.181892,5.308092 -1.370373,1.47436 -2.055846,3.26138 -2.055846,5.36023 0,1.47437 0.177791,2.77558 0.533325,3.90343 0.355353,1.12721 0.8109,2.03788 1.36594,2.73218 0.55513,0.6943 1.253293,1.27499 2.094877,1.74345 0.841215,0.46854 1.656617,0.80662 2.445701,1.01496 0.789542,0.20835 1.6784,0.36436 2.667082,0.46853 -0.693663,0.6244 -1.118644,1.51822 -1.274765,2.68034 -0.364468,0.17344 -0.754884,0.30383 -1.170936,0.39077 -0.41651,0.0864 -0.910831,0.1299 -1.483186,0.1299 -0.572355,0 -1.140657,-0.18645 -1.704261,-0.55985 -0.564065,-0.37303 -1.044963,-0.91476 -1.444154,-1.6262 -0.329651,-0.55494 -0.750302,-1.00595 -1.261959,-1.35282 -0.512022,-0.34715 -0.940972,-0.55508 -1.288029,-0.62435 l -0.520365,-0.0781 c -0.364468,0 -0.615657,0.0387 -0.754553,0.11663 -0.138907,0.0783 -0.182095,0.17808 -0.130053,0.29975 0.05204,0.12103 0.130046,0.24257 0.234035,0.36424 0.104173,0.12131 0.216863,0.22588 0.338168,0.31255 l 0.182197,0.13021 c 0.3816,0.17344 0.758872,0.50309 1.131905,0.98904 0.373032,0.48532 0.646064,0.92791 0.819502,1.32646 l 0.26026,0.59888 c 0.225569,0.65903 0.607171,1.19225 1.144711,1.60028 0.537815,0.4073 1.118834,0.6674 1.743597,0.78032 0.624394,0.11283 1.227319,0.17328 1.808243,0.18204 0.581197,0.009 1.062551,-0.0217 1.444154,-0.091 l 0.59858,-0.10413 c 0,0.6593 0.0043,1.55249 0.01311,2.68034 0.0086,1.12749 0.01311,1.7179 0.01311,1.76967 0,0.38151 -0.09515,0.67217 -0.286178,0.87149 -0.190938,0.19969 -0.38154,0.31252 -0.572204,0.33878 -0.190754,0.0255 -0.477208,0.0387 -0.858533,0.0387 4.674421,-0.40195 12.75732,0.41839 12.68548,-0.027 -0.14783,-0.0172 -0.31614,-0.0606 -0.50771,-0.1299 -0.19075,-0.0699 -0.32923,-0.19525 -0.41654,-0.37735 -0.0868,-0.18218 -0.1299,-0.4205 -0.1299,-0.71552 v -6.21923 c 0,-1.68298 -0.450913,-2.9142 -1.352373,-3.69454 0.98877,-0.10417 1.877723,-0.2608 2.667083,-0.46914 0.78945,-0.20771 1.60476,-0.54632 2.44616,-1.01451 0.84122,-0.46873 1.54393,-1.0452 2.10754,-1.73048 0.56424,-0.68519 1.02363,-1.5961 1.3789,-2.73234 0.35553,-1.13596 0.53332,-2.44159 0.53332,-3.91623 0,-2.09885 -0.68563,-3.88584 -2.056,-5.36039 0.64244,-1.57844 0.57268,-3.347682 -0.20766,-5.308092 -0.15186,-0.0488 -0.32484,-0.0731 -0.51899,-0.0727 z M 82.321342,117.8312 c 0.04797,-3e-5 0.104502,0.01 0.169542,0.0293 0.173426,0.087 0.234144,0.19119 0.182196,0.31286 -0.08649,0.12167 -0.199545,0.13872 -0.338169,0.0517 -0.173423,-0.0864 -0.234146,-0.19057 -0.182196,-0.31224 0.03252,-0.0544 0.08868,-0.0815 0.168627,-0.0816 z m 0.821485,0.66978 c 0.08131,-0.004 0.176158,0.0426 0.284501,0.13997 0.156394,0.19121 0.173753,0.32998 0.05245,0.41638 -0.104173,0.12158 -0.242827,0.0954 -0.416536,-0.0779 -0.156123,-0.19085 -0.173449,-0.32968 -0.05214,-0.41608 0.03906,-0.0392 0.08295,-0.0599 0.131731,-0.0624 z m 0.847099,1.01375 c 0.09353,0.005 0.183684,0.0787 0.270321,0.21924 0.156215,0.20826 0.156215,0.37302 0,0.4946 -0.138985,0.10426 -0.28618,0.0438 -0.442302,-0.18204 -0.156303,-0.22521 -0.156303,-0.38183 0,-0.46823 0.05855,-0.0457 0.115864,-0.0668 0.171981,-0.0636 z m 0.941018,1.13404 c 0.09513,0.002 0.201258,0.0613 0.318195,0.17823 0.208253,0.19084 0.243033,0.35555 0.104135,0.49399 -0.138805,0.15648 -0.312323,0.13025 -0.520213,-0.0775 -0.225844,-0.19148 -0.260346,-0.35567 -0.104134,-0.49475 0.06073,-0.0682 0.128027,-0.10148 0.202017,-0.10001 z m 1.389876,0.87896 c 0.05313,10e-4 0.112244,0.0105 0.177318,0.0277 0.277519,0.0873 0.390299,0.22566 0.338168,0.41624 -0.06926,0.20798 -0.234089,0.2599 -0.494293,0.15627 -0.294652,-0.0697 -0.407435,-0.19952 -0.338169,-0.39046 0.05202,-0.14354 0.157595,-0.21316 0.316976,-0.20979 z m 3.294173,0.0723 c 0.21627,-0.006 0.339584,0.075 0.369729,0.24181 0.03491,0.17335 -0.08636,0.29498 -0.364241,0.36424 -0.277519,0.0695 -0.43359,-5e-5 -0.468222,-0.20812 -0.03482,-0.20798 0.08651,-0.33839 0.364393,-0.39016 0.03469,-0.004 0.06744,-0.007 0.09834,-0.008 z m -1.478002,0.20918 c 0.225821,-0.002 0.338779,0.096 0.338779,0.29304 0,0.19057 -0.138773,0.28603 -0.416384,0.28603 -0.294747,0.0346 -0.442303,-0.0606 -0.442303,-0.28603 0,-0.19121 0.13862,-0.28602 0.416231,-0.28602 0.03687,-0.004 0.07142,-0.007 0.103677,-0.007 z"
               id="rect247935"
               inkscape:connector-curvature="0" />
          </g>
        </g>
        <g
           transform="matrix(0.35078385,0,0,0.35078385,84.448446,184.16686)"
           id="g248378">
          <path
             inkscape:connector-curvature="0"
             id="path248362"
             style="font-style:normal;font-weight:normal;font-size:medium;line-height:125%;font-family:sans-serif;letter-spacing:0px;word-spacing:0px;fill:#ffffff;fill-opacity:1;stroke:none;stroke-width:0.26458332px;stroke-linecap:butt;stroke-linejoin:miter;stroke-opacity:1"
             d="m 89.345995,191.57785 v -2.07222 h -1.705322 v -0.85783 h 2.738851 v 3.31246 q -0.604614,0.42891 -1.333252,0.65112 -0.728638,0.21704 -1.55546,0.21704 -1.808676,0 -2.831869,-1.0542 -1.018026,-1.05937 -1.018026,-2.94556 0,-1.89135 1.018026,-2.94555 1.023193,-1.05937 2.831869,-1.05937 0.754475,0 1.431437,0.18604 0.682129,0.18603 1.255737,0.54777 v 1.11104 q -0.578776,-0.49093 -1.229899,-0.73897 -0.651123,-0.24805 -1.369426,-0.24805 -1.415934,0 -2.129068,0.79065 -0.707968,0.79065 -0.707968,2.35644 0,1.56063 0.707968,2.35128 0.713134,0.79065 2.129068,0.79065 0.552938,0 0.98702,-0.093 0.434082,-0.0982 0.780314,-0.29972 z" />
          <path
             inkscape:connector-curvature="0"
             id="path248364"
             style="font-style:normal;font-weight:normal;font-size:medium;line-height:125%;font-family:sans-serif;letter-spacing:0px;word-spacing:0px;fill:#ffffff;fill-opacity:1;stroke:none;stroke-width:0.26458332px;stroke-linecap:butt;stroke-linejoin:miter;stroke-opacity:1"
             d="m 92.25021,186.8908 h 0.950847 v 5.78776 H 92.25021 Z m 0,-2.25309 h 0.950847 v 1.20406 H 92.25021 Z" />
          <path
             inkscape:connector-curvature="0"
             id="path248366"
             style="font-style:normal;font-weight:normal;font-size:medium;line-height:125%;font-family:sans-serif;letter-spacing:0px;word-spacing:0px;fill:#ffffff;fill-opacity:1;stroke:none;stroke-width:0.26458332px;stroke-linecap:butt;stroke-linejoin:miter;stroke-opacity:1"
             d="m 96.125942,185.24749 v 1.64331 h 1.958537 v 0.73897 h -1.958537 v 3.14193 q 0,0.70797 0.191203,0.9095 0.19637,0.20154 0.790649,0.20154 h 0.976685 v 0.79582 h -0.976685 q -1.100708,0 -1.519287,-0.40825 -0.418579,-0.41341 -0.418579,-1.49861 v -3.14193 h -0.697632 v -0.73897 h 0.697632 v -1.64331 z" />
          <rect
             style="opacity:1;fill:#ffffff;fill-opacity:1;stroke:none;stroke-width:1.69275284;stroke-miterlimit:4;stroke-dasharray:none;stroke-opacity:0.98431373"
             id="rect248368"
             width="21.314745"
             height="9.1444845"
             x="98.822906"
             y="184.15019" />
          <path
             inkscape:connector-curvature="0"
             id="path248370"
             style="font-style:normal;font-weight:normal;font-size:medium;line-height:125%;font-family:sans-serif;letter-spacing:0px;word-spacing:0px;fill:#424f5e;fill-opacity:1;stroke:none;stroke-width:0.26458332px;stroke-linecap:butt;stroke-linejoin:miter;stroke-opacity:1"
             d="m 106.82928,190.39446 v -3.50366 h 0.95084 v 3.46749 q 0,0.82165 0.3204,1.23506 0.32039,0.40825 0.96118,0.40825 0.76998,0 1.2144,-0.49093 0.44958,-0.49093 0.44958,-1.33842 v -3.28145 h 0.95085 v 5.78776 h -0.95085 v -0.88884 q -0.34623,0.5271 -0.80615,0.78549 -0.45475,0.25321 -1.05937,0.25321 -0.99735,0 -1.51412,-0.62012 -0.51676,-0.62011 -0.51676,-1.81384 z m 2.39262,-3.64319 z" />
          <path
             inkscape:connector-curvature="0"
             id="path248372"
             style="font-style:normal;font-weight:normal;font-size:medium;line-height:125%;font-family:sans-serif;letter-spacing:0px;word-spacing:0px;fill:#424f5e;fill-opacity:1;stroke:none;stroke-width:0.26458332px;stroke-linecap:butt;stroke-linejoin:miter;stroke-opacity:1"
             d="m 117.80018,189.78985 q 0,-1.04904 -0.43408,-1.64331 -0.42891,-0.59945 -1.18339,-0.59945 -0.75447,0 -1.18856,0.59945 -0.42891,0.59427 -0.42891,1.64331 0,1.04903 0.42891,1.64847 0.43409,0.59428 1.18856,0.59428 0.75448,0 1.18339,-0.59428 0.43408,-0.59944 0.43408,-1.64847 z m -3.23494,-2.02055 q 0.29972,-0.51677 0.75448,-0.76481 0.45992,-0.25322 1.09554,-0.25322 1.0542,0 1.71049,0.83716 0.66145,0.83716 0.66145,2.20142 0,1.36425 -0.66145,2.20141 -0.65629,0.83716 -1.71049,0.83716 -0.63562,0 -1.09554,-0.24805 -0.45476,-0.25321 -0.75448,-0.76998 v 0.86817 h -0.95601 v -8.04085 h 0.95601 z" />
          <text
             xml:space="preserve"
             style="font-style:normal;font-weight:normal;font-size:10.58333302px;line-height:125%;font-family:sans-serif;letter-spacing:0px;word-spacing:0px;fill:#424f5e;fill-opacity:1;stroke:none;stroke-width:0.26458332px;stroke-linecap:butt;stroke-linejoin:miter;stroke-opacity:1"
             x="98.617897"
             y="192.51578"
             id="text248376"><tspan
               sodipodi:role="line"
               id="tspan248374"
               x="98.617897"
               y="192.51578"
               style="fill:#424f5e;fill-opacity:1;stroke-width:0.26458332px">H</tspan></text>
        </g>
      </g>
    </g>
    <path
       style="fill:none;fill-rule:evenodd;stroke:#ffffff;stroke-width:0.265;stroke-linecap:round;stroke-linejoin:round;stroke-opacity:1;fill-opacity:1;stroke-miterlimit:4;stroke-dasharray:0.53,1.06;stroke-dashoffset:0"
       d="m 57.189055,139.77378 c 0,0 24.542702,9.95651 61.960435,0.60208"
       id="path248769"
       inkscape:connector-curvature="0"
       sodipodi:nodetypes="cc" />
    <path
       sodipodi:nodetypes="cc"
       inkscape:connector-curvature="0"
       id="path248771"
       d="m 57.189055,139.77378 c 0,0 24.542702,9.95651 61.960435,0.60208"
       style="fill:none;fill-rule:evenodd;stroke:#ffffff;stroke-width:0.265;stroke-linecap:round;stroke-linejoin:round;stroke-opacity:1;fill-opacity:1;stroke-miterlimit:4;stroke-dasharray:0.53,1.06;stroke-dashoffset:0" />
  </g>
</svg>
