<?xml version="1.0" encoding="UTF-8" standalone="no"?>
<!-- Created with Inkscape (http://www.inkscape.org/) -->

<svg
   xmlns:dc="http://purl.org/dc/elements/1.1/"
   xmlns:cc="http://creativecommons.org/ns#"
   xmlns:rdf="http://www.w3.org/1999/02/22-rdf-syntax-ns#"
   xmlns:svg="http://www.w3.org/2000/svg"
   xmlns="http://www.w3.org/2000/svg"
   xmlns:xlink="http://www.w3.org/1999/xlink"
   xmlns:sodipodi="http://sodipodi.sourceforge.net/DTD/sodipodi-0.dtd"
   xmlns:inkscape="http://www.inkscape.org/namespaces/inkscape"
   width="793.70081"
   height="600"
   viewBox="0 0 210 158.75"
   version="1.1"
   id="svg8"
   inkscape:version="0.92.2 (unknown)"
   sodipodi:docname="git-github.svg">
  <defs
     id="defs2">
    <linearGradient
       inkscape:collect="always"
       id="linearGradient1419">
      <stop
         style="stop-color:#f03c2e;stop-opacity:1"
         offset="0"
         id="stop1415" />
      <stop
         style="stop-color:#1b1817;stop-opacity:1"
         offset="1"
         id="stop1417" />
    </linearGradient>
    <clipPath
       id="clipPath833"
       clipPathUnits="userSpaceOnUse">
      <path
         inkscape:connector-curvature="0"
         id="path831"
         d="M 0,551.986 H 530.973 V 0 H 0 Z" />
    </clipPath>
    <filter
       inkscape:collect="always"
       style="color-interpolation-filters:sRGB"
       id="filter2193"
       x="-0.11531055"
       width="1.2306211"
       y="-0.11508967"
       height="1.2301793">
      <feGaussianBlur
         inkscape:collect="always"
         stdDeviation="2.0471027"
         id="feGaussianBlur2195" />
    </filter>
    <path
       d="M0,1173.3333 L1999.99995,1173.3333 L1999.99995,0 L0,0 L0,1173.3333 L0,1173.3333 Z"
       id="path-1" />
    <path
       d="M0,1173.3333 L1999.99995,1173.3333 L1999.99995,0 L0,0 L0,1173.3333 L0,1173.3333 Z"
       id="path-1-8" />
    <filter
       inkscape:collect="always"
       style="color-interpolation-filters:sRGB"
       id="filter1360"
       x="-0.22200007"
       width="1.4440001"
       y="-0.22200007"
       height="1.4440001">
      <feGaussianBlur
         inkscape:collect="always"
         stdDeviation="2.9976595"
         id="feGaussianBlur1362" />
    </filter>
    <linearGradient
       inkscape:collect="always"
       xlink:href="#linearGradient1419"
       id="linearGradient1421"
       x1="110.38232"
       y1="207.19742"
       x2="125.72359"
       y2="207.19742"
       gradientUnits="userSpaceOnUse"
       gradientTransform="translate(-6.8015508,7.3400579)" />
  </defs>
  <sodipodi:namedview
     id="base"
     pagecolor="#ffffff"
     bordercolor="#666666"
     borderopacity="1.0"
     inkscape:pageopacity="0.0"
     inkscape:pageshadow="2"
     inkscape:zoom="0.5"
     inkscape:cx="-102.70607"
     inkscape:cy="307.5674"
     inkscape:document-units="mm"
     inkscape:current-layer="layer1"
     showgrid="false"
     units="px"
     inkscape:window-width="1366"
     inkscape:window-height="714"
     inkscape:window-x="0"
     inkscape:window-y="28"
     inkscape:window-maximized="1" />
  <metadata
     id="metadata5">
    <rdf:RDF>
      <cc:Work
         rdf:about="">
        <dc:format>image/svg+xml</dc:format>
        <dc:type
           rdf:resource="http://purl.org/dc/dcmitype/StillImage" />
        <dc:title />
      </cc:Work>
    </rdf:RDF>
  </metadata>
  <g
     inkscape:label="Layer 1"
     inkscape:groupmode="layer"
     id="layer1"
     transform="translate(0,-138.24998)">
    <rect
       style="opacity:1;fill:#f9f9f9;fill-opacity:1;stroke:none;stroke-width:5.39236546;stroke-linecap:round;stroke-linejoin:round;stroke-miterlimit:4;stroke-dasharray:none;stroke-opacity:1"
       id="rect3387"
       width="210.07617"
       height="158.27702"
       x="0"
       y="138.24998" />
    <text
       xml:space="preserve"
       style="font-style:normal;font-weight:normal;font-size:3.63956666px;line-height:125%;font-family:sans-serif;letter-spacing:0px;word-spacing:0px;fill:#1a1a1a;fill-opacity:0.6;stroke:none;stroke-width:0.09098917px;stroke-linecap:butt;stroke-linejoin:miter;stroke-opacity:1"
       x="192.13573"
       y="291.57812"
       id="text3385"><tspan
         sodipodi:role="line"
         id="tspan3383"
         x="192.13573"
         y="291.57812"
         style="fill:#1a1a1a;fill-opacity:0.6;stroke-width:0.09098917px">@abas</tspan></text>
    <g
       id="g1368"
       transform="matrix(1,0,0,-1,-16.226633,419.86225)">
      <path
         sodipodi:type="star"
         style="opacity:1;fill:#999999;fill-opacity:1;stroke:none;stroke-width:0.26499999;stroke-linecap:round;stroke-linejoin:round;stroke-miterlimit:4;stroke-dasharray:none;stroke-opacity:1;filter:url(#filter1360)"
         id="path1186"
         sodipodi:sides="4"
         sodipodi:cx="75.253983"
         sodipodi:cy="206.32149"
         sodipodi:r1="16.20356"
         sodipodi:r2="6.7170401"
         sodipodi:arg1="1.5707963"
         sodipodi:arg2="2.3561945"
         inkscape:flatsided="true"
         inkscape:rounded="0.04535689"
         inkscape:randomized="0"
         d="m 75.253983,222.52505 c -1.039366,0 -16.20356,-15.1642 -16.20356,-16.20356 0,-1.03937 15.164193,-16.20356 16.203559,-16.20356 1.039367,0 16.20356,15.16419 16.20356,16.20356 0,1.03936 -15.164193,16.20356 -16.203559,16.20356 z"
         inkscape:transform-center-y="7.3698428"
         transform="matrix(1.8164824,0,0,1.8193152,-60.135012,-169.10272)"
         inkscape:transform-center-x="3.3713945e-06" />
      <g
         id="g1306">
        <path
           sodipodi:type="star"
           style="opacity:1;fill:#ffffff;fill-opacity:1;stroke:none;stroke-width:0.26499999;stroke-linecap:round;stroke-linejoin:round;stroke-miterlimit:4;stroke-dasharray:none;stroke-opacity:1"
           id="path1147"
           sodipodi:sides="4"
           sodipodi:cx="75.253983"
           sodipodi:cy="206.32149"
           sodipodi:r1="16.20356"
           sodipodi:r2="6.7170401"
           sodipodi:arg1="1.5707963"
           sodipodi:arg2="2.3561945"
           inkscape:flatsided="true"
           inkscape:rounded="0.04535689"
           inkscape:randomized="0"
           d="m 75.253983,222.52505 c -1.039366,0 -16.20356,-15.1642 -16.20356,-16.20356 0,-1.03937 15.164193,-16.20356 16.203559,-16.20356 1.039367,0 16.20356,15.16419 16.20356,16.20356 0,1.03936 -15.164193,16.20356 -16.203559,16.20356 z"
           inkscape:transform-center-y="7.3698428"
           transform="matrix(1.8164824,0,0,1.8193152,-60.135012,-169.10272)"
           inkscape:transform-center-x="3.3713945e-06" />
        <path
           id="path3198"
           style="fill:#f03c2e;stroke:none;stroke-width:0.11517788"
           d="m 104.91348,208.89691 -25.727163,25.76676 c -1.480949,1.48432 -3.88398,1.48432 -5.366912,0 l -5.341844,-5.35123 6.776422,-6.78738 c 1.575157,0.53264 3.381227,0.17514 4.63619,-1.08206 1.262529,-1.26504 1.616193,-3.0895 1.070856,-4.6726 l 6.531709,-6.54126 c 1.580609,0.54566 3.402963,0.19294 4.665492,-1.07333 1.763492,-1.76576 1.763492,-4.62822 0,-6.39546 -1.764767,-1.76731 -4.622143,-1.76731 -6.387683,0 -1.326333,1.32972 -1.654472,3.28187 -0.981911,4.91872 l -6.09206,6.10118 v -16.05507 c 0.429589,-0.21325 0.835386,-0.49726 1.193597,-0.85501 1.763486,-1.76608 1.763486,-4.62822 0,-6.39701 -1.763496,-1.76551 -4.622909,-1.76551 -6.385117,0 -1.763496,1.76879 -1.763496,4.63093 0,6.39701 0.435867,0.43605 0.940613,0.76593 1.479144,0.98674 v 16.20356 c -0.538531,0.22082 -1.042063,0.54794 -1.479144,0.987 -1.335639,1.3373 -1.657045,3.30102 -0.971918,4.94409 l -6.680742,6.69227 -17.641187,-17.66752 c -1.481681,-1.48553 -1.481681,-3.89236 0,-5.37661 l 25.728427,-25.76682 c 1.481209,-1.48402 3.883471,-1.48402 5.366913,0 l 25.606931,25.64742 c 1.48216,1.48451 1.48216,3.89255 0,5.37661"
           inkscape:connector-curvature="0" />
      </g>
    </g>
    <text
       xml:space="preserve"
       style="font-style:normal;font-weight:normal;font-size:10.58333302px;line-height:125%;font-family:sans-serif;letter-spacing:0px;word-spacing:0px;fill:#ff1908;fill-opacity:1;stroke:none;stroke-width:0.26458332px;stroke-linecap:butt;stroke-linejoin:miter;stroke-opacity:1"
       x="52.519829"
       y="262.53589"
       id="text1372"><tspan
         sodipodi:role="line"
         id="tspan1370"
         x="52.519829"
         y="262.53589"
         style="fill:#ff1908;fill-opacity:1;stroke-width:0.26458332px">Git</tspan></text>
    <g
       id="g2216"
       transform="matrix(1.2588857,0,0,1.2588857,95.953317,-60.601725)">
      <ellipse
         style="opacity:1;fill:#4d4d4d;fill-opacity:1;stroke:none;stroke-width:2.00171828;stroke-linecap:round;stroke-linejoin:round;stroke-miterlimit:4;stroke-dasharray:none;stroke-opacity:1;filter:url(#filter2193)"
         id="ellipse2015"
         cx="50.270828"
         cy="217.81396"
         rx="21.303543"
         ry="21.344429" />
      <ellipse
         ry="21.344429"
         rx="21.303543"
         cy="217.81396"
         cx="50.270828"
         id="path1967"
         style="opacity:1;fill:#ffffff;fill-opacity:1;stroke:none;stroke-width:2.00171828;stroke-linecap:round;stroke-linejoin:round;stroke-miterlimit:4;stroke-dasharray:none;stroke-opacity:1" />
      <g
         transform="translate(-125.86607,37.041667)"
         id="g1965">
        <g
           id="g839"
           transform="matrix(0.35277777,0,0,-0.35277777,176.1369,159.42787)">
          <path
             d="m 0,0 c -33.347,0 -60.388,-27.035 -60.388,-60.388 0,-26.68 17.303,-49.316 41.297,-57.301 3.018,-0.559 4.126,1.31 4.126,2.905 0,1.439 -0.056,6.197 -0.082,11.243 -16.8,-3.653 -20.345,7.125 -20.345,7.125 -2.747,6.979 -6.705,8.836 -6.705,8.836 -5.479,3.748 0.413,3.671 0.413,3.671 6.064,-0.426 9.257,-6.224 9.257,-6.224 5.386,-9.231 14.127,-6.562 17.573,-5.019 0.543,3.902 2.107,6.567 3.834,8.075 -13.413,1.526 -27.513,6.705 -27.513,29.844 0,6.592 2.359,11.98 6.222,16.209 -0.627,1.521 -2.694,7.663 0.586,15.981 0,0 5.071,1.622 16.61,-6.191 4.817,1.338 9.983,2.009 15.115,2.033 5.132,-0.024 10.302,-0.695 15.128,-2.033 11.526,7.813 16.59,6.191 16.59,6.191 3.287,-8.318 1.22,-14.46 0.593,-15.981 3.872,-4.229 6.214,-9.617 6.214,-16.209 0,-23.195 -14.127,-28.301 -27.574,-29.796 2.166,-1.874 4.096,-5.549 4.096,-11.183 0,-8.08 -0.069,-14.583 -0.069,-16.572 0,-1.608 1.086,-3.49 4.147,-2.898 23.982,7.994 41.263,30.622 41.263,57.294 C 60.388,-27.035 33.351,0 0,0"
             style="fill:#1b1817;fill-opacity:1;fill-rule:evenodd;stroke:none"
             id="path841"
             inkscape:connector-curvature="0" />
        </g>
        <g
           id="g843"
           transform="matrix(0.35277777,0,0,-0.35277777,162.90223,190.01484)">
          <path
             d="m 0,0 c -0.133,-0.301 -0.605,-0.391 -1.035,-0.185 -0.439,0.198 -0.684,0.607 -0.542,0.908 0.13,0.308 0.602,0.394 1.04,0.188 C -0.099,0.714 0.151,0.301 0,0"
             style="fill:#1b1817;fill-opacity:1;fill-rule:nonzero;stroke:none"
             id="path845"
             inkscape:connector-curvature="0" />
        </g>
        <g
           id="g847"
           transform="matrix(0.35277777,0,0,-0.35277777,163.76523,190.97739)">
          <path
             d="M 0,0 C -0.288,-0.267 -0.852,-0.143 -1.233,0.279 -1.629,0.7 -1.702,1.264 -1.41,1.534 -1.113,1.801 -0.567,1.676 -0.172,1.255 0.224,0.829 0.301,0.271 0,0"
             style="fill:#1b1817;fill-opacity:1;fill-rule:nonzero;stroke:none"
             id="path849"
             inkscape:connector-curvature="0" />
        </g>
        <g
           id="g851"
           transform="matrix(0.35277777,0,0,-0.35277777,164.60516,192.20417)">
          <path
             d="M 0,0 C -0.37,-0.258 -0.976,-0.017 -1.35,0.52 -1.72,1.058 -1.72,1.702 -1.341,1.96 -0.967,2.218 -0.37,1.985 0.009,1.453 0.378,0.907 0.378,0.263 0,0"
             style="fill:#1b1817;fill-opacity:1;fill-rule:nonzero;stroke:none"
             id="path853"
             inkscape:connector-curvature="0" />
        </g>
        <g
           id="g855"
           transform="matrix(0.35277777,0,0,-0.35277777,165.75582,193.38965)">
          <path
             d="M 0,0 C -0.331,-0.365 -1.036,-0.267 -1.552,0.232 -2.08,0.718 -2.227,1.409 -1.896,1.774 -1.56,2.14 -0.851,2.037 -0.331,1.543 0.193,1.057 0.352,0.361 0,0"
             style="fill:#1b1817;fill-opacity:1;fill-rule:nonzero;stroke:none"
             id="path857"
             inkscape:connector-curvature="0" />
        </g>
        <g
           id="g859"
           transform="matrix(0.35277777,0,0,-0.35277777,167.34331,194.07795)">
          <path
             d="m 0,0 c -0.147,-0.473 -0.825,-0.687 -1.509,-0.486 -0.683,0.207 -1.13,0.76 -0.992,1.238 0.142,0.476 0.824,0.7 1.513,0.485 C -0.306,1.031 0.142,0.481 0,0"
             style="fill:#1b1817;fill-opacity:1;fill-rule:nonzero;stroke:none"
             id="path861"
             inkscape:connector-curvature="0" />
        </g>
        <g
           id="g863"
           transform="matrix(0.35277777,0,0,-0.35277777,169.08689,194.20545)">
          <path
             d="m 0,0 c 0.017,-0.498 -0.563,-0.911 -1.281,-0.92 -0.722,-0.016 -1.307,0.387 -1.315,0.877 0,0.503 0.568,0.911 1.289,0.924 C -0.589,0.895 0,0.494 0,0"
             style="fill:#1b1817;fill-opacity:1;fill-rule:nonzero;stroke:none"
             id="path865"
             inkscape:connector-curvature="0" />
        </g>
        <g
           id="g867"
           transform="matrix(0.35277777,0,0,-0.35277777,170.70918,193.92947)">
          <path
             d="m 0,0 c 0.086,-0.485 -0.413,-0.984 -1.126,-1.117 -0.701,-0.129 -1.35,0.172 -1.439,0.653 -0.087,0.498 0.42,0.997 1.121,1.126 C -0.73,0.786 -0.091,0.494 0,0"
             style="fill:#1b1817;fill-opacity:1;fill-rule:nonzero;stroke:none"
             id="path869"
             inkscape:connector-curvature="0" />
        </g>
      </g>
    </g>
    <text
       xml:space="preserve"
       style="font-style:normal;font-weight:normal;font-size:10.58333302px;line-height:125%;font-family:sans-serif;letter-spacing:0px;word-spacing:0px;fill:#000000;fill-opacity:1;stroke:none;stroke-width:0.26458332px;stroke-linecap:butt;stroke-linejoin:miter;stroke-opacity:1"
       x="141.50578"
       y="263.59421"
       id="text1376"><tspan
         sodipodi:role="line"
         id="tspan1374"
         x="141.50578"
         y="263.59421"
         style="stroke-width:0.26458332px">Github</tspan></text>
    <text
       xml:space="preserve"
       style="font-style:normal;font-variant:normal;font-weight:normal;font-stretch:normal;font-size:36.48328018px;line-height:125%;font-family:'Abyssinica SIL';-inkscape-font-specification:'Abyssinica SIL, Normal';font-variant-ligatures:normal;font-variant-caps:normal;font-variant-numeric:normal;font-feature-settings:normal;text-align:start;letter-spacing:0px;word-spacing:0px;writing-mode:lr-tb;text-anchor:start;fill:url(#linearGradient1421);fill-opacity:1;stroke:none;stroke-width:0.91208202px;stroke-linecap:butt;stroke-linejoin:miter;stroke-opacity:1"
       x="100.35486"
       y="224.06532"
       id="text1413"><tspan
         sodipodi:role="line"
         id="tspan1411"
         x="100.35486"
         y="224.06532"
         style="font-style:normal;font-variant:normal;font-weight:normal;font-stretch:normal;font-size:36.48328018px;font-family:'Abyssinica SIL';-inkscape-font-specification:'Abyssinica SIL, Normal';font-variant-ligatures:normal;font-variant-caps:normal;font-variant-numeric:normal;font-feature-settings:normal;text-align:start;writing-mode:lr-tb;text-anchor:start;fill:url(#linearGradient1421);fill-opacity:1;stroke-width:0.91208202px">+</tspan></text>
  </g>
</svg>
