<?xml version="1.0" encoding="UTF-8" standalone="no"?>
<!-- Created with Inkscape (http://www.inkscape.org/) -->

<svg
   xmlns:sketch="http://www.bohemiancoding.com/sketch/ns"
   xmlns:dc="http://purl.org/dc/elements/1.1/"
   xmlns:cc="http://creativecommons.org/ns#"
   xmlns:rdf="http://www.w3.org/1999/02/22-rdf-syntax-ns#"
   xmlns:svg="http://www.w3.org/2000/svg"
   xmlns="http://www.w3.org/2000/svg"
   xmlns:sodipodi="http://sodipodi.sourceforge.net/DTD/sodipodi-0.dtd"
   xmlns:inkscape="http://www.inkscape.org/namespaces/inkscape"
   width="793.70081"
   height="600"
   viewBox="0 0 210 158.75"
   version="1.1"
   id="svg8"
   inkscape:version="0.92.2 (unknown)"
   sodipodi:docname="git.svg">
  <defs
     id="defs2">
    <clipPath
       id="clipPath833"
       clipPathUnits="userSpaceOnUse">
      <path
         inkscape:connector-curvature="0"
         id="path831"
         d="M 0,551.986 H 530.973 V 0 H 0 Z" />
    </clipPath>
    <filter
       inkscape:collect="always"
       style="color-interpolation-filters:sRGB"
       id="filter2193"
       x="-0.11531055"
       width="1.2306211"
       y="-0.11508967"
       height="1.2301793">
      <feGaussianBlur
         inkscape:collect="always"
         stdDeviation="2.0471027"
         id="feGaussianBlur2195" />
    </filter>
    <path
       d="M0,1173.3333 L1999.99995,1173.3333 L1999.99995,0 L0,0 L0,1173.3333 L0,1173.3333 Z"
       id="path-1" />
    <path
       d="M0,1173.3333 L1999.99995,1173.3333 L1999.99995,0 L0,0 L0,1173.3333 L0,1173.3333 Z"
       id="path-1-8" />
    <filter
       inkscape:collect="always"
       style="color-interpolation-filters:sRGB"
       id="filter2791"
       x="-0.1037426"
       width="1.2074852"
       y="-0.11262178"
       height="1.2252436">
      <feGaussianBlur
         inkscape:collect="always"
         stdDeviation="21.289254"
         id="feGaussianBlur2793" />
    </filter>
    <filter
       inkscape:collect="always"
       style="color-interpolation-filters:sRGB"
       id="filter3184"
       x="-0.13815589"
       width="1.2763118"
       y="-0.11993106"
       height="1.2398621">
      <feGaussianBlur
         inkscape:collect="always"
         stdDeviation="1.8116336"
         id="feGaussianBlur3186" />
    </filter>
  </defs>
  <sodipodi:namedview
     id="base"
     pagecolor="#ffffff"
     bordercolor="#666666"
     borderopacity="1.0"
     inkscape:pageopacity="0.0"
     inkscape:pageshadow="2"
     inkscape:zoom="0.70710678"
     inkscape:cx="237.19945"
     inkscape:cy="267.19593"
     inkscape:document-units="mm"
     inkscape:current-layer="layer1"
     showgrid="false"
     units="px"
     inkscape:window-width="1366"
     inkscape:window-height="714"
     inkscape:window-x="0"
     inkscape:window-y="28"
     inkscape:window-maximized="1" />
  <metadata
     id="metadata5">
    <rdf:RDF>
      <cc:Work
         rdf:about="">
        <dc:format>image/svg+xml</dc:format>
        <dc:type
           rdf:resource="http://purl.org/dc/dcmitype/StillImage" />
        <dc:title />
      </cc:Work>
    </rdf:RDF>
  </metadata>
  <g
     inkscape:label="Layer 1"
     inkscape:groupmode="layer"
     id="layer1"
     transform="translate(0,-138.24998)">
    <rect
       style="opacity:1;fill:#f9f9f9;fill-opacity:1;stroke:none;stroke-width:5.39236546;stroke-linecap:round;stroke-linejoin:round;stroke-miterlimit:4;stroke-dasharray:none;stroke-opacity:1"
       id="rect3387"
       width="210.07617"
       height="158.27702"
       x="0"
       y="138.24998" />
    <g
       id="g3381"
       transform="translate(-4.1702693e-7,7.5926975)">
      <g
         transform="matrix(0.55219975,0,0,0.55219975,48.457391,130.87748)"
         id="g3293">
        <g
           id="g2216">
          <ellipse
             style="opacity:1;fill:#4d4d4d;fill-opacity:1;stroke:none;stroke-width:2.00171828;stroke-linecap:round;stroke-linejoin:round;stroke-miterlimit:4;stroke-dasharray:none;stroke-opacity:1;filter:url(#filter2193)"
             id="ellipse2015"
             cx="50.270828"
             cy="217.81396"
             rx="21.303543"
             ry="21.344429" />
          <ellipse
             ry="21.344429"
             rx="21.303543"
             cy="217.81396"
             cx="50.270828"
             id="path1967"
             style="opacity:1;fill:#ffffff;fill-opacity:1;stroke:none;stroke-width:2.00171828;stroke-linecap:round;stroke-linejoin:round;stroke-miterlimit:4;stroke-dasharray:none;stroke-opacity:1" />
          <g
             transform="translate(-125.86607,37.041667)"
             id="g1965">
            <g
               id="g839"
               transform="matrix(0.35277777,0,0,-0.35277777,176.1369,159.42787)">
              <path
                 d="m 0,0 c -33.347,0 -60.388,-27.035 -60.388,-60.388 0,-26.68 17.303,-49.316 41.297,-57.301 3.018,-0.559 4.126,1.31 4.126,2.905 0,1.439 -0.056,6.197 -0.082,11.243 -16.8,-3.653 -20.345,7.125 -20.345,7.125 -2.747,6.979 -6.705,8.836 -6.705,8.836 -5.479,3.748 0.413,3.671 0.413,3.671 6.064,-0.426 9.257,-6.224 9.257,-6.224 5.386,-9.231 14.127,-6.562 17.573,-5.019 0.543,3.902 2.107,6.567 3.834,8.075 -13.413,1.526 -27.513,6.705 -27.513,29.844 0,6.592 2.359,11.98 6.222,16.209 -0.627,1.521 -2.694,7.663 0.586,15.981 0,0 5.071,1.622 16.61,-6.191 4.817,1.338 9.983,2.009 15.115,2.033 5.132,-0.024 10.302,-0.695 15.128,-2.033 11.526,7.813 16.59,6.191 16.59,6.191 3.287,-8.318 1.22,-14.46 0.593,-15.981 3.872,-4.229 6.214,-9.617 6.214,-16.209 0,-23.195 -14.127,-28.301 -27.574,-29.796 2.166,-1.874 4.096,-5.549 4.096,-11.183 0,-8.08 -0.069,-14.583 -0.069,-16.572 0,-1.608 1.086,-3.49 4.147,-2.898 23.982,7.994 41.263,30.622 41.263,57.294 C 60.388,-27.035 33.351,0 0,0"
                 style="fill:#1b1817;fill-opacity:1;fill-rule:evenodd;stroke:none"
                 id="path841"
                 inkscape:connector-curvature="0" />
            </g>
            <g
               id="g843"
               transform="matrix(0.35277777,0,0,-0.35277777,162.90223,190.01484)">
              <path
                 d="m 0,0 c -0.133,-0.301 -0.605,-0.391 -1.035,-0.185 -0.439,0.198 -0.684,0.607 -0.542,0.908 0.13,0.308 0.602,0.394 1.04,0.188 C -0.099,0.714 0.151,0.301 0,0"
                 style="fill:#1b1817;fill-opacity:1;fill-rule:nonzero;stroke:none"
                 id="path845"
                 inkscape:connector-curvature="0" />
            </g>
            <g
               id="g847"
               transform="matrix(0.35277777,0,0,-0.35277777,163.76523,190.97739)">
              <path
                 d="M 0,0 C -0.288,-0.267 -0.852,-0.143 -1.233,0.279 -1.629,0.7 -1.702,1.264 -1.41,1.534 -1.113,1.801 -0.567,1.676 -0.172,1.255 0.224,0.829 0.301,0.271 0,0"
                 style="fill:#1b1817;fill-opacity:1;fill-rule:nonzero;stroke:none"
                 id="path849"
                 inkscape:connector-curvature="0" />
            </g>
            <g
               id="g851"
               transform="matrix(0.35277777,0,0,-0.35277777,164.60516,192.20417)">
              <path
                 d="M 0,0 C -0.37,-0.258 -0.976,-0.017 -1.35,0.52 -1.72,1.058 -1.72,1.702 -1.341,1.96 -0.967,2.218 -0.37,1.985 0.009,1.453 0.378,0.907 0.378,0.263 0,0"
                 style="fill:#1b1817;fill-opacity:1;fill-rule:nonzero;stroke:none"
                 id="path853"
                 inkscape:connector-curvature="0" />
            </g>
            <g
               id="g855"
               transform="matrix(0.35277777,0,0,-0.35277777,165.75582,193.38965)">
              <path
                 d="M 0,0 C -0.331,-0.365 -1.036,-0.267 -1.552,0.232 -2.08,0.718 -2.227,1.409 -1.896,1.774 -1.56,2.14 -0.851,2.037 -0.331,1.543 0.193,1.057 0.352,0.361 0,0"
                 style="fill:#1b1817;fill-opacity:1;fill-rule:nonzero;stroke:none"
                 id="path857"
                 inkscape:connector-curvature="0" />
            </g>
            <g
               id="g859"
               transform="matrix(0.35277777,0,0,-0.35277777,167.34331,194.07795)">
              <path
                 d="m 0,0 c -0.147,-0.473 -0.825,-0.687 -1.509,-0.486 -0.683,0.207 -1.13,0.76 -0.992,1.238 0.142,0.476 0.824,0.7 1.513,0.485 C -0.306,1.031 0.142,0.481 0,0"
                 style="fill:#1b1817;fill-opacity:1;fill-rule:nonzero;stroke:none"
                 id="path861"
                 inkscape:connector-curvature="0" />
            </g>
            <g
               id="g863"
               transform="matrix(0.35277777,0,0,-0.35277777,169.08689,194.20545)">
              <path
                 d="m 0,0 c 0.017,-0.498 -0.563,-0.911 -1.281,-0.92 -0.722,-0.016 -1.307,0.387 -1.315,0.877 0,0.503 0.568,0.911 1.289,0.924 C -0.589,0.895 0,0.494 0,0"
                 style="fill:#1b1817;fill-opacity:1;fill-rule:nonzero;stroke:none"
                 id="path865"
                 inkscape:connector-curvature="0" />
            </g>
            <g
               id="g867"
               transform="matrix(0.35277777,0,0,-0.35277777,170.70918,193.92947)">
              <path
                 d="m 0,0 c 0.086,-0.485 -0.413,-0.984 -1.126,-1.117 -0.701,-0.129 -1.35,0.172 -1.439,0.653 -0.087,0.498 0.42,0.997 1.121,1.126 C -0.73,0.786 -0.091,0.494 0,0"
                 style="fill:#1b1817;fill-opacity:1;fill-rule:nonzero;stroke:none"
                 id="path869"
                 inkscape:connector-curvature="0" />
            </g>
          </g>
        </g>
        <g
           id="g2849"
           transform="matrix(1.0340433,0,0,1.0340433,-1.569844,-6.3567822)">
          <g
             sketch:type="MSPage"
             id="g2529"
             transform="matrix(0.09409503,0,0,0.09409503,70.481609,185.19436)"
             style="fill:#b3b3b3;fill-rule:evenodd;stroke:none;stroke-width:1;filter:url(#filter2791)">
            <g
               style="fill:#b3b3b3"
               sketch:type="MSArtboardGroup"
               id="g2527">
              <g
                 style="fill:#b3b3b3"
                 transform="translate(98,118)"
                 sketch:type="MSLayerGroup"
                 id="g2525">
                <g
                   style="fill:#b3b3b3"
                   sketch:type="MSShapeGroup"
                   id="g2523">
                  <g
                     style="fill:#b3b3b3"
                     id="g2521">
                    <g
                       style="fill:#b3b3b3"
                       transform="matrix(1,0,0,-1,0,457.3333)"
                       id="g2519">
                      <g
                         style="fill:#b3b3b3"
                         id="g2517">
                        <g
                           style="fill:#b3b3b3"
                           id="g2515">
                          <g
                             style="fill:#b3b3b3"
                             id="g2513">
                            <g
                               style="fill:#b3b3b3"
                               id="g2511">
                              <g
                                 style="fill:#b3b3b3"
                                 transform="translate(0.666658,0.666658)"
                                 id="g2509">
                                <g
                                   transform="translate(0.532,0.774933)"
                                   id="g2479"
                                   style="fill:#b3b3b3">
                                <path
                                   style="fill:#b3b3b3"
                                   id="path2477"
                                   d="m 491.99999,194.66666 -27.55867,84.81467 -54.61733,168.09733 c -2.80933,8.64799 -15.04533,8.64799 -17.856,0 L 337.34933,279.48133 H 155.98266 l -54.62,168.09733 c -2.809329,8.64799 -15.045329,8.64799 -17.855995,0 L 28.889333,279.48133 1.332,194.66666 c -2.5146666,-7.736 0.24,-16.21066 6.8199998,-20.992 L 246.66533,0.38533332 485.17999,173.67466 c 6.58,4.78134 9.33333,13.256 6.82,20.992"
                                   inkscape:connector-curvature="0" />
                                </g>
                                <g
                                   transform="translate(156.19786,1.160267)"
                                   id="g2483"
                                   style="fill:#b3b3b3">
                                <path
                                   style="fill:#b3b3b3"
                                   id="path2481"
                                   d="M 90.999998,0 V 0 L 181.68399,279.09599 H 0.31599997 Z"
                                   inkscape:connector-curvature="0" />
                                </g>
                                <g
                                   transform="translate(28.531199,1.1608)"
                                   id="g2487"
                                   style="fill:#b3b3b3">
                                <path
                                   style="fill:#b3b3b3"
                                   id="path2485"
                                   d="m 218.66666,0 -90.684,279.09466 H 0.89066664 Z"
                                   inkscape:connector-curvature="0" />
                                </g>
                                <g
                                   transform="translate(0.088533,0.255867)"
                                   id="g2491"
                                   style="fill:#b3b3b3">
                                <path
                                   style="fill:#b3b3b3"
                                   id="path2489"
                                   d="m 29.333333,279.99999 v 0 L 1.7746666,195.18533 c -2.51333325,-7.736 0.24,-16.21067 6.8213332,-20.99067 L 247.10933,0.90533331 Z"
                                   inkscape:connector-curvature="0" />
                                </g>
                                <g
                                   transform="translate(29.421866,280.25559)"
                                   id="g2495"
                                   style="fill:#b3b3b3">
                                <path
                                   style="fill:#b3b3b3"
                                   id="path2493"
                                   d="M 0,0 H 127.092 L 72.473331,168.09733 c -2.810666,8.64933 -15.046666,8.64933 -17.855999,0 z"
                                   inkscape:connector-curvature="0" />
                                </g>
                                <g
                                   transform="translate(247.19786,1.1608)"
                                   id="g2499"
                                   style="fill:#b3b3b3">
                                <path
                                   style="fill:#b3b3b3"
                                   id="path2497"
                                   d="M 0,0 90.683998,279.09466 H 217.77599 Z"
                                   inkscape:connector-curvature="0" />
                                </g>
                                <g
                                   transform="translate(246.30706,0.255867)"
                                   id="g2503"
                                   style="fill:#b3b3b3">
                                <path
                                   style="fill:#b3b3b3"
                                   id="path2501"
                                   d="m 218.66666,279.99999 v 0 l 27.55867,-84.81466 c 2.51333,-7.736 -0.24,-16.21067 -6.82134,-20.99067 L 0.89066664,0.90533331 Z"
                                   inkscape:connector-curvature="0" />
                                </g>
                                <g
                                   transform="translate(336.97372,280.25559)"
                                   id="g2507"
                                   style="fill:#b3b3b3">
                                <path
                                   style="fill:#b3b3b3"
                                   id="path2505"
                                   d="M 128,0 H 0.90799998 L 55.526665,168.09733 c 2.810667,8.64933 15.046667,8.64933 17.856,0 z"
                                   inkscape:connector-curvature="0" />
                                </g>
                              </g>
                            </g>
                          </g>
                        </g>
                      </g>
                    </g>
                  </g>
                </g>
              </g>
            </g>
          </g>
          <g
             style="fill:none;fill-rule:evenodd;stroke:none;stroke-width:1"
             transform="matrix(0.09409503,0,0,0.09409503,70.481609,185.19436)"
             id="g2442"
             sketch:type="MSPage">
            <g
               id="logo-extra-whitespace"
               sketch:type="MSArtboardGroup">
              <g
                 id="logo-no-bg"
                 sketch:type="MSLayerGroup"
                 transform="translate(98,118)">
                <g
                   id="Page-1"
                   sketch:type="MSShapeGroup">
                  <g
                     id="gitlab_logo">
                    <g
                       id="g10"
                       transform="matrix(1,0,0,-1,0,457.3333)">
                      <g
                         id="g16">
                        <g
                           id="g18-Clipped">
                          <g
                             id="g18">
                            <g
                               id="g2432">
                              <g
                                 id="Group"
                                 transform="translate(0.666658,0.666658)">
                                <g
                                   style="fill:#fc6d26"
                                   id="g44"
                                   transform="translate(0.532,0.774933)">
                                <path
                                   inkscape:connector-curvature="0"
                                   d="m 491.99999,194.66666 -27.55867,84.81467 -54.61733,168.09733 c -2.80933,8.64799 -15.04533,8.64799 -17.856,0 L 337.34933,279.48133 H 155.98266 l -54.62,168.09733 c -2.809329,8.64799 -15.045329,8.64799 -17.855995,0 L 28.889333,279.48133 1.332,194.66666 c -2.5146666,-7.736 0.24,-16.21066 6.8199998,-20.992 L 246.66533,0.38533332 485.17999,173.67466 c 6.58,4.78134 9.33333,13.256 6.82,20.992"
                                   id="path46" />
                                </g>
                                <g
                                   style="fill:#e24329"
                                   id="g48"
                                   transform="translate(156.19786,1.160267)">
                                <path
                                   inkscape:connector-curvature="0"
                                   d="M 90.999998,0 V 0 L 181.68399,279.09599 H 0.31599997 Z"
                                   id="path50" />
                                </g>
                                <g
                                   style="fill:#fc6d26"
                                   id="g56"
                                   transform="translate(28.531199,1.1608)">
                                <path
                                   inkscape:connector-curvature="0"
                                   d="m 218.66666,0 -90.684,279.09466 H 0.89066664 Z"
                                   id="path58" />
                                </g>
                                <g
                                   style="fill:#fca326"
                                   id="g64"
                                   transform="translate(0.088533,0.255867)">
                                <path
                                   inkscape:connector-curvature="0"
                                   d="m 29.333333,279.99999 v 0 L 1.7746666,195.18533 c -2.51333325,-7.736 0.24,-16.21067 6.8213332,-20.99067 L 247.10933,0.90533331 Z"
                                   id="path66" />
                                </g>
                                <g
                                   style="fill:#e24329"
                                   id="g72"
                                   transform="translate(29.421866,280.25559)">
                                <path
                                   inkscape:connector-curvature="0"
                                   d="M 0,0 H 127.092 L 72.473331,168.09733 c -2.810666,8.64933 -15.046666,8.64933 -17.855999,0 z"
                                   id="path74" />
                                </g>
                                <g
                                   style="fill:#fc6d26"
                                   id="g76"
                                   transform="translate(247.19786,1.1608)">
                                <path
                                   inkscape:connector-curvature="0"
                                   d="M 0,0 90.683998,279.09466 H 217.77599 Z"
                                   id="path78" />
                                </g>
                                <g
                                   style="fill:#fca326"
                                   id="g80"
                                   transform="translate(246.30706,0.255867)">
                                <path
                                   inkscape:connector-curvature="0"
                                   d="m 218.66666,279.99999 v 0 l 27.55867,-84.81466 c 2.51333,-7.736 -0.24,-16.21067 -6.82134,-20.99067 L 0.89066664,0.90533331 Z"
                                   id="path82" />
                                </g>
                                <g
                                   style="fill:#e24329"
                                   id="g84"
                                   transform="translate(336.97372,280.25559)">
                                <path
                                   inkscape:connector-curvature="0"
                                   d="M 128,0 H 0.90799998 L 55.526665,168.09733 c 2.810667,8.64933 15.046667,8.64933 17.856,0 z"
                                   id="path86" />
                                </g>
                              </g>
                            </g>
                          </g>
                        </g>
                      </g>
                    </g>
                  </g>
                </g>
              </g>
            </g>
          </g>
        </g>
        <g
           id="g3196">
          <g
             style="fill:#666666;filter:url(#filter3184)"
             id="g3066"
             transform="matrix(1.1775139,0,0,1.1775139,391.63543,-25.397688)">
            <path
               id="path3060"
               d="m -199.189,189.31876 v 0 0 c -8.63913,0 -15.73556,2.31405 -15.73556,5.24519 0,0.77135 1.85124,11.72453 2.62259,16.0441 0.30854,2.00551 5.39946,4.78237 13.11297,4.78237 v 0 0 c 7.71351,0 12.65015,-2.77686 13.11297,-4.78237 0.77135,-4.31957 2.62259,-15.27275 2.62259,-16.0441 -0.15427,-2.93114 -7.09643,-5.24519 -15.73556,-5.24519 z m 0,22.52345 c -2.77686,0 -4.93665,-2.15978 -4.93665,-4.93665 0,-2.77686 2.15979,-4.93664 4.93665,-4.93664 2.77686,0 4.93665,2.15978 4.93665,4.93664 0,2.6226 -2.15979,4.93665 -4.93665,4.93665 z m 0,-15.73556 c -5.55373,0 -10.02756,-0.92562 -10.02756,-2.15978 0,-1.23416 4.47383,-2.15979 10.02756,-2.15979 5.55373,0 10.02756,0.92563 10.02756,2.15979 0,1.23416 -4.47383,2.15978 -10.02756,2.15978 z"
               inkscape:connector-curvature="0"
               style="fill:#666666;stroke-width:1.54270184" />
            <path
               id="path3062"
               d="m -187.92728,214.77334 c -0.30854,0 -0.46281,0.15427 -0.46281,0.15427 0,0 -3.85675,3.08541 -10.79891,3.08541 -6.94216,0 -10.79891,-3.08541 -10.79891,-3.08541 0,0 -0.30854,-0.15427 -0.46281,-0.15427 -0.30854,0 -0.61709,0.15427 -0.61709,0.61708 0,0 0,0.15427 0,0.15427 0.61709,3.23968 1.0799,5.55373 1.0799,5.86227 0.46281,2.31405 5.09091,4.1653 10.64464,4.1653 v 0 0 0 0 c 5.55373,0 10.18183,-1.85125 10.64464,-4.1653 0,-0.30854 0.46281,-2.62259 1.07989,-5.86227 0,0 0,-0.15427 0,-0.15427 0.15427,-0.30854 0,-0.61708 -0.30854,-0.61708 z"
               inkscape:connector-curvature="0"
               style="fill:#666666;stroke-width:1.54270184" />
            <circle
               id="circle3064"
               r="2.468323"
               cy="206.7513"
               cx="-199.189"
               style="fill:#666666;stroke-width:1.54270184" />
          </g>
          <g
             transform="matrix(1.1775139,0,0,1.1775139,391.63543,-25.397688)"
             id="g3058">
            <path
               style="fill:#205081;stroke-width:1.54270184"
               inkscape:connector-curvature="0"
               d="m -199.189,189.31876 v 0 0 c -8.63913,0 -15.73556,2.31405 -15.73556,5.24519 0,0.77135 1.85124,11.72453 2.62259,16.0441 0.30854,2.00551 5.39946,4.78237 13.11297,4.78237 v 0 0 c 7.71351,0 12.65015,-2.77686 13.11297,-4.78237 0.77135,-4.31957 2.62259,-15.27275 2.62259,-16.0441 -0.15427,-2.93114 -7.09643,-5.24519 -15.73556,-5.24519 z m 0,22.52345 c -2.77686,0 -4.93665,-2.15978 -4.93665,-4.93665 0,-2.77686 2.15979,-4.93664 4.93665,-4.93664 2.77686,0 4.93665,2.15978 4.93665,4.93664 0,2.6226 -2.15979,4.93665 -4.93665,4.93665 z m 0,-15.73556 c -5.55373,0 -10.02756,-0.92562 -10.02756,-2.15978 0,-1.23416 4.47383,-2.15979 10.02756,-2.15979 5.55373,0 10.02756,0.92563 10.02756,2.15979 0,1.23416 -4.47383,2.15978 -10.02756,2.15978 z"
               id="path2915" />
            <path
               style="fill:#205081;stroke-width:1.54270184"
               inkscape:connector-curvature="0"
               d="m -187.92728,214.77334 c -0.30854,0 -0.46281,0.15427 -0.46281,0.15427 0,0 -3.85675,3.08541 -10.79891,3.08541 -6.94216,0 -10.79891,-3.08541 -10.79891,-3.08541 0,0 -0.30854,-0.15427 -0.46281,-0.15427 -0.30854,0 -0.61709,0.15427 -0.61709,0.61708 0,0 0,0.15427 0,0.15427 0.61709,3.23968 1.0799,5.55373 1.0799,5.86227 0.46281,2.31405 5.09091,4.1653 10.64464,4.1653 v 0 0 0 0 c 5.55373,0 10.18183,-1.85125 10.64464,-4.1653 0,-0.30854 0.46281,-2.62259 1.07989,-5.86227 0,0 0,-0.15427 0,-0.15427 0.15427,-0.30854 0,-0.61708 -0.30854,-0.61708 z"
               id="path2917" />
            <circle
               style="fill:#205081;stroke-width:1.54270184"
               cx="-199.189"
               cy="206.7513"
               r="2.468323"
               id="circle2919" />
          </g>
        </g>
      </g>
      <path
         inkscape:connector-curvature="0"
         d="m 135.61203,182.37156 -27.77898,-27.77842 c -1.59906,-1.6002 -4.19374,-1.6002 -5.79494,0 l -5.767872,5.76902 7.316862,7.31728 c 1.70078,-0.57422 3.65089,-0.18882 5.00594,1.16654 1.36322,1.3638 1.74509,3.3307 1.15626,5.0374 l 7.05263,7.05195 c 1.70667,-0.58828 3.67436,-0.208 5.03758,1.15712 1.90414,1.90362 1.90414,4.98956 0,6.89476 -1.90551,1.90529 -4.99077,1.90529 -6.89712,0 -1.43211,-1.43353 -1.78642,-3.53809 -1.06022,-5.30273 l -6.57792,-6.57751 v 17.30852 c 0.46385,0.22989 0.90201,0.53608 1.28879,0.92176 1.90413,1.90397 1.90413,4.98956 0,6.89643 -1.90414,1.90335 -4.9916,1.90335 -6.89435,0 -1.904139,-1.90687 -1.904139,-4.99246 0,-6.89643 0.47063,-0.47009 1.01563,-0.82572 1.59711,-1.06378 v -17.4686 c -0.58148,-0.23805 -1.12517,-0.59071 -1.59711,-1.06405 -1.44216,-1.44171 -1.789199,-3.55873 -1.04943,-5.33009 l -7.213552,-7.21475 -19.048125,19.04686 c -1.599851,1.60151 -1.599851,4.19624 0,5.79637 l 27.780347,27.77848 c 1.59934,1.59989 4.19319,1.59989 5.79494,0 l 27.64916,-27.64976 c 1.60037,-1.6004 1.60037,-4.19645 0,-5.79637"
         style="fill:#f03c2e;stroke:none;stroke-width:0.12426682"
         id="path3198" />
    </g>
    <text
       xml:space="preserve"
       style="font-style:normal;font-weight:normal;font-size:6.91894484px;line-height:125%;font-family:sans-serif;letter-spacing:0px;word-spacing:0px;fill:#f03c2e;fill-opacity:1;stroke:none;stroke-width:0.17297362px;stroke-linecap:butt;stroke-linejoin:miter;stroke-opacity:1"
       x="172.7373"
       y="285.71643"
       id="text3385"><tspan
         sodipodi:role="line"
         id="tspan3383"
         x="172.7373"
         y="285.71643"
         style="fill:#f03c2e;fill-opacity:1;stroke-width:0.17297362px">@abas</tspan></text>
  </g>
</svg>
