<?xml version="1.0" encoding="UTF-8" standalone="no"?>
<!-- Created with Inkscape (http://www.inkscape.org/) -->

<svg
   xmlns:dc="http://purl.org/dc/elements/1.1/"
   xmlns:cc="http://creativecommons.org/ns#"
   xmlns:rdf="http://www.w3.org/1999/02/22-rdf-syntax-ns#"
   xmlns:svg="http://www.w3.org/2000/svg"
   xmlns="http://www.w3.org/2000/svg"
   xmlns:sodipodi="http://sodipodi.sourceforge.net/DTD/sodipodi-0.dtd"
   xmlns:inkscape="http://www.inkscape.org/namespaces/inkscape"
   width="32"
   height="32"
   viewBox="0 0 8.4666667 8.4666667"
   version="1.1"
   id="svg8"
   inkscape:version="0.92.2 (unknown)"
   sodipodi:docname="favicon.svg">
  <defs
     id="defs2" />
  <sodipodi:namedview
     id="base"
     pagecolor="#ffffff"
     bordercolor="#666666"
     borderopacity="1.0"
     inkscape:pageopacity="0.0"
     inkscape:pageshadow="2"
     inkscape:zoom="7.9195959"
     inkscape:cx="-2.7388002"
     inkscape:cy="13.905226"
     inkscape:document-units="mm"
     inkscape:current-layer="layer1"
     showgrid="false"
     units="px"
     inkscape:window-width="1366"
     inkscape:window-height="714"
     inkscape:window-x="0"
     inkscape:window-y="28"
     inkscape:window-maximized="1" />
  <metadata
     id="metadata5">
    <rdf:RDF>
      <cc:Work
         rdf:about="">
        <dc:format>image/svg+xml</dc:format>
        <dc:type
           rdf:resource="http://purl.org/dc/dcmitype/StillImage" />
        <dc:title></dc:title>
      </cc:Work>
    </rdf:RDF>
  </metadata>
  <g
     inkscape:label="Layer 1"
     inkscape:groupmode="layer"
     id="layer1"
     transform="translate(0,-288.53333)">
    <g
       id="g1040"
       transform="matrix(0.06605874,0,0,0.06605874,-6.4764348e-6,288.53332)">
      <g
         id="g929">
        <g
           id="g819">
          <path
             id="path817"
             d="m 84.808,126.005 c 1.508,-21.699 5.67,-31.811 11.326,-37.834 H 32.035 c 5.658,6.023 9.818,16.135 11.32,37.834 z"
             style="fill:#1a93d6"
             inkscape:connector-curvature="0" />
        </g>
        <g
           id="g823">
          <path
             id="path821"
             d="m 74.867,126.005 c 0.784,-21.699 2.95,-31.811 5.894,-37.834 h -33.35 c 2.943,6.023 5.108,16.135 5.89,37.834 z"
             style="fill:#ffffff"
             inkscape:connector-curvature="0" />
        </g>
        <g
           id="g827">
          <path
             id="path825"
             d="m 51.759,105.22 c 3.939,0.795 8.069,1.219 12.326,1.219 4.257,0 8.387,-0.426 12.327,-1.219 1.077,-8.275 2.57,-13.41 4.349,-17.049 h -33.35 c 1.778,3.639 3.272,8.773 4.348,17.049 z"
             style="fill:#d9e7e8"
             inkscape:connector-curvature="0" />
        </g>
        <g
           id="g831">
          <path
             id="path829"
             d="m 84.81,127.505 c -0.035,0 -0.07,-10e-4 -0.105,-0.004 -0.827,-0.058 -1.45,-0.773 -1.393,-1.6 1.214,-17.477 4.218,-28.87 9.63,-36.23 H 35.228 c 5.413,7.359 8.415,18.753 9.624,36.23 0.058,0.826 -0.566,1.543 -1.393,1.6 -0.813,0.082 -1.543,-0.565 -1.6,-1.393 -1.308,-18.881 -4.674,-30.264 -10.918,-36.91 -0.409,-0.437 -0.521,-1.074 -0.283,-1.623 0.238,-0.549 0.778,-0.904 1.377,-0.904 h 64.099 c 0.598,0 1.139,0.355 1.377,0.904 0.237,0.549 0.126,1.187 -0.283,1.622 -6.243,6.648 -9.611,18.032 -10.924,36.911 -0.055,0.791 -0.714,1.397 -1.494,1.397 z"
             style="fill:#33363a"
             inkscape:connector-curvature="0" />
        </g>
        <g
           id="g853">
          <g
             id="g835">
            <path
               id="path833"
               d="m 113.294,60.212 c 0,20.676 -22.032,37.441 -49.209,37.441 -27.178,0 -49.209,-16.766 -49.209,-37.441 0,-20.68 22.031,-45.459 49.209,-45.459 27.177,0 49.209,24.779 49.209,45.459 z"
               style="fill:#77d6fc"
               inkscape:connector-curvature="0" />
          </g>
          <g
             id="g839">
            <path
               id="path837"
               d="m 113.294,60.212 c 0,20.676 -22.032,37.441 -49.209,37.441 -27.178,0 -49.209,-16.766 -49.209,-37.441 0,-20.68 22.031,-34.928 49.209,-34.928 27.177,0 49.209,14.248 49.209,34.928 z"
               style="fill:#42b1e8"
               inkscape:connector-curvature="0" />
          </g>
          <g
             id="g843">
            <path
               id="path841"
               d="m 74.563,70.849 c 0,1.393 -4.691,1.643 -10.479,1.643 -5.788,0 -10.479,-0.25 -10.479,-1.643 0,-1.395 4.691,-5.037 10.479,-5.037 5.788,0 10.479,3.642 10.479,5.037 z"
               style="fill:#77d6fc"
               inkscape:connector-curvature="0" />
          </g>
          <g
             id="g847">
            <path
               id="path845"
               d="m 113.294,60.212 c 0,20.676 -22.032,37.941 -49.209,37.941 -27.178,0 -49.209,-17.266 -49.209,-37.941 0,-20.682 6.261,18.34 49.209,18.34 42.947,0 49.209,-39.022 49.209,-18.34 z"
               style="fill:#1a93d6"
               inkscape:connector-curvature="0" />
          </g>
          <g
             id="g851">
            <path
               id="path849"
               d="M 37.868,93.392 C 37.65,93.392 37.43,93.345 37.22,93.245 22.289,86.074 13.376,73.726 13.376,60.213 c 0,-21.27 22.619,-46.959 50.709,-46.959 28.09,0 50.709,25.689 50.709,46.959 0,13.515 -8.914,25.862 -23.844,33.03 -0.749,0.358 -1.643,0.044 -2.002,-0.703 -0.358,-0.747 -0.044,-1.644 0.703,-2.002 13.865,-6.656 22.143,-17.993 22.143,-30.325 0,-19.911 -21.281,-43.959 -47.709,-43.959 -26.428,0 -47.709,24.047 -47.709,43.958 0,12.332 8.277,23.669 22.143,30.327 0.747,0.359 1.062,1.255 0.703,2.002 -0.259,0.537 -0.795,0.851 -1.354,0.851 z"
               style="fill:#33363a"
               inkscape:connector-curvature="0" />
          </g>
        </g>
        <g
           id="g857">
          <path
             id="path855"
             d="m 47.923,65.028 c 0,4.449 -3.605,8.051 -8.053,8.051 -4.446,0 -8.051,-3.602 -8.051,-8.051 0,-4.447 3.605,-8.051 8.051,-8.051 4.447,0 8.053,3.604 8.053,8.051 z"
             style="fill:#465652"
             inkscape:connector-curvature="0" />
        </g>
        <g
           id="g861">
          <circle
             id="circle859"
             r="3.2809999"
             cy="62.410999"
             cx="35.867001"
             style="fill:#ffffff" />
        </g>
        <path
           id="path863"
           d="m 39.87,55.477 c -3.24,0 -6.104,1.625 -7.831,4.099 -0.111,0.149 -0.207,0.305 -0.3,0.466 -0.894,1.453 -1.42,3.157 -1.42,4.985 0,5.267 4.284,9.551 9.551,9.551 5.268,0 9.553,-4.284 9.553,-9.551 0,-5.267 -4.285,-9.55 -9.553,-9.55 z m 0,16.102 c -2.721,0 -5.058,-1.668 -6.046,-4.034 0.688,-0.018 1.525,-0.2 2.468,-0.396 0.336,-0.03 0.66,-0.093 0.972,-0.19 0.818,-0.148 1.693,-0.267 2.606,-0.267 2.413,0 4.572,0.813 6.048,0.853 -0.989,2.366 -3.326,4.034 -6.048,4.034 z"
           style="fill:#33363a"
           inkscape:connector-curvature="0" />
        <circle
           id="circle865"
           r="1.78"
           cy="62.411999"
           cx="35.866001"
           style="fill:#ffffff" />
        <g
           id="g869">
          <path
             id="path867"
             d="m 96.35,65.028 c 0,4.449 -3.604,8.051 -8.051,8.051 -4.447,0 -8.052,-3.602 -8.052,-8.051 0,-4.447 3.604,-8.051 8.052,-8.051 4.446,0 8.051,3.604 8.051,8.051 z"
             style="fill:#465652"
             inkscape:connector-curvature="0" />
        </g>
        <g
           id="g873">
          <circle
             id="circle871"
             r="3.28"
             cy="62.410999"
             cx="84.293999"
             style="fill:#ffffff" />
        </g>
        <path
           id="path875"
           d="m 88.299,55.477 c -3.238,0 -6.101,1.623 -7.829,4.095 -0.113,0.151 -0.211,0.311 -0.306,0.475 -0.893,1.452 -1.417,3.155 -1.417,4.981 0,5.267 4.285,9.551 9.552,9.551 5.267,0 9.551,-4.284 9.551,-9.551 0,-5.267 -4.285,-9.551 -9.551,-9.551 z m 0,16.102 c -2.721,0 -5.058,-1.668 -6.047,-4.034 0.688,-0.018 1.525,-0.2 2.469,-0.396 0.335,-0.03 0.658,-0.093 0.97,-0.189 0.819,-0.148 1.694,-0.268 2.609,-0.268 2.412,0 4.571,0.813 6.046,0.853 -0.989,2.366 -3.326,4.034 -6.047,4.034 z"
           style="fill:#33363a"
           inkscape:connector-curvature="0" />
        <circle
           id="circle877"
           r="1.78"
           cy="62.411999"
           cx="84.293999"
           style="fill:#ffffff" />
        <g
           id="g891">
          <g
             id="g881">
            <path
               id="path879"
               d="m 82.419,80.395 c 0,6.256 -8.209,11.33 -18.334,11.33 -10.125,0 -18.332,-5.074 -18.332,-11.33 0,-6.258 8.207,-5.861 18.332,-5.861 10.125,0 18.334,-0.396 18.334,5.861 z"
               style="fill:#d9e7e8"
               inkscape:connector-curvature="0" />
          </g>
          <g
             id="g885">
            <path
               id="path883"
               d="m 82.419,80.395 c 0,6.256 -8.209,11.33 -18.334,11.33 -10.125,0 -18.332,-5.074 -18.332,-11.33 0,-6.258 8.207,-1.5 18.332,-1.5 10.125,0 18.334,-4.757 18.334,1.5 z"
               style="fill:#ffffff"
               inkscape:connector-curvature="0" />
          </g>
          <g
             id="g889">
            <path
               id="path887"
               d="m 64.085,93.226 c -11.121,0 -19.832,-5.636 -19.832,-12.83 0,-1.823 0.581,-3.327 1.727,-4.471 2.93,-2.924 8.866,-2.907 16.398,-2.894 l 1.707,0.003 1.707,-0.003 c 7.526,-0.016 13.47,-0.03 16.4,2.894 1.146,1.144 1.727,2.647 1.727,4.471 0,7.194 -8.712,12.83 -19.834,12.83 z M 60.822,76.029 c -5.692,0 -10.844,0.144 -12.724,2.02 -0.577,0.575 -0.846,1.321 -0.846,2.347 0,5.328 7.708,9.83 16.832,9.83 9.125,0 16.834,-4.502 16.834,-9.83 0,-1.025 -0.269,-1.771 -0.846,-2.347 C 78.023,76.004 72.088,76.02 65.798,76.031 L 64.084,76.034 62.37,76.031 C 61.853,76.03 61.334,76.029 60.822,76.029 Z"
               style="fill:#33363a"
               inkscape:connector-curvature="0" />
          </g>
        </g>
        <g
           id="g895">
          <path
             id="path893"
             d="m 21.232,2.161 c -4.703,0 -8.517,12.098 -8.517,27.021 0,1.697 0.053,3.357 0.146,4.969 -4.359,-4.738 -8.594,-7.291 -10.45,-5.957 -2.407,1.731 0.094,9.324 5.583,16.959 4.764,6.627 10.208,11.1 13.141,11.041 0.032,0.002 0.064,0.008 0.097,0.008 4.704,0 8.517,-12.098 8.517,-27.019 0,-14.924 -3.812,-27.022 -8.517,-27.022 z"
             style="fill:#ffffff"
             inkscape:connector-curvature="0" />
        </g>
        <g
           id="g899">
          <path
             id="path897"
             d="m 2.932,36.284 c 1.115,2.693 2.839,5.773 5.064,8.869 4.764,6.627 10.208,11.1 13.141,11.041 0.032,0.002 0.064,0.008 0.097,0.008 4.257,0 7.784,-9.91 8.415,-22.853 -0.631,-12.945 -4.158,-22.854 -8.415,-22.854 -4.246,0 -7.766,9.861 -8.409,22.76 0.014,0.297 0.021,0.601 0.039,0.896 -0.025,-0.027 -0.05,-0.053 -0.074,-0.078 -0.046,1.127 -0.072,2.275 -0.072,3.441 0,1.699 0.053,3.359 0.146,4.971 -3.996,-4.343 -7.881,-6.84 -9.932,-6.201 z"
             style="fill:#d9e7e8"
             inkscape:connector-curvature="0" />
        </g>
        <path
           id="path901"
           d="m 21.232,0.661 c -6.576,0 -10.017,14.348 -10.017,28.521 0,0.409 0.003,0.821 0.009,1.235 -2.968,-2.665 -7.01,-5.363 -9.688,-3.441 -1.23,0.885 -2.354,2.982 -0.719,7.952 1.102,3.345 3.218,7.286 5.96,11.101 4.187,5.823 10.213,11.663 14.301,11.666 0.054,0.004 0.117,0.007 0.154,0.007 6.576,0 10.017,-14.347 10.017,-28.52 0,-14.173 -3.44,-28.521 -10.017,-28.521 z m 0.047,54.04 c -0.021,-0.002 -0.041,-0.003 -0.053,-0.004 -0.03,-0.002 -0.061,-0.003 -0.091,-0.003 -0.019,0 -0.038,10e-4 -0.061,10e-4 -1.827,0 -6.684,-3.213 -11.862,-10.418 C 6.644,40.706 4.674,37.052 3.666,33.99 2.612,30.788 3.05,29.582 3.286,29.412 c 0.632,-0.449 3.757,0.734 8.185,5.452 v 2.184 c 0,3.032 2.468,5.5 5.5,5.5 h 0.744 c 3.032,0 5.5,-2.468 5.5,-5.5 v -3.115 c 0,-0.828 -0.672,-1.5 -1.5,-1.5 -0.828,0 -1.5,0.672 -1.5,1.5 v 3.115 c 0,1.379 -1.121,2.5 -2.5,2.5 h -0.744 c -1.379,0 -2.5,-1.121 -2.5,-2.5 v -3.115 c 0,-0.228 -0.055,-0.442 -0.146,-0.635 -0.068,-1.385 -0.11,-2.767 -0.11,-4.115 0,-15.579 4.155,-25.521 7.017,-25.521 2.862,0 7.017,9.942 7.017,25.521 0,15.493 -4.11,25.411 -6.97,25.518 z"
           style="fill:#33363a"
           inkscape:connector-curvature="0" />
        <g
           id="g905">
          <path
             id="path903"
             d="m 106.937,2.161 c 4.703,0 8.517,12.098 8.517,27.021 0,1.697 -0.052,3.357 -0.146,4.969 4.358,-4.738 8.593,-7.291 10.449,-5.957 2.407,1.731 -0.094,9.324 -5.583,16.959 -4.763,6.627 -10.208,11.1 -13.14,11.041 -0.033,0.002 -0.064,0.008 -0.098,0.008 -4.703,0 -8.516,-12.098 -8.516,-27.019 0.001,-14.924 3.813,-27.022 8.517,-27.022 z"
             style="fill:#ffffff"
             inkscape:connector-curvature="0" />
        </g>
        <g
           id="g909">
          <path
             id="path907"
             d="m 125.237,36.284 c -1.115,2.693 -2.838,5.773 -5.063,8.869 -4.763,6.627 -10.208,11.1 -13.14,11.041 -0.033,0.002 -0.064,0.008 -0.098,0.008 -4.256,0 -7.783,-9.91 -8.415,-22.853 0.632,-12.945 4.159,-22.854 8.415,-22.854 4.246,0 7.766,9.861 8.41,22.76 -0.014,0.297 -0.022,0.601 -0.039,0.896 0.024,-0.027 0.049,-0.053 0.074,-0.078 0.045,1.127 0.071,2.275 0.071,3.441 0,1.699 -0.052,3.359 -0.146,4.971 3.996,-4.343 7.881,-6.84 9.931,-6.201 z"
             style="fill:#d9e7e8"
             inkscape:connector-curvature="0" />
        </g>
        <path
           id="path911"
           d="m 126.632,26.976 c -2.675,-1.926 -6.72,0.776 -9.688,3.441 0.006,-0.413 0.009,-0.825 0.009,-1.235 0,-14.174 -3.44,-28.521 -10.017,-28.521 -6.575,0 -10.016,14.348 -10.016,28.521 0,14.173 3.44,28.52 10.016,28.52 0.021,0 0.088,-0.004 0.137,-0.007 0.006,0 0.011,0 0.016,0 4.088,-10e-4 10.117,-5.842 14.303,-11.666 2.742,-3.814 4.858,-7.756 5.96,-11.101 1.635,-4.969 0.511,-7.067 -0.72,-7.952 z m -2.13,7.014 c -1.008,3.063 -2.978,6.716 -5.546,10.288 -5.179,7.205 -10.034,10.417 -11.861,10.417 -0.011,0 -0.021,0 -0.03,-10e-4 -0.042,0 -0.079,10e-4 -0.118,0.003 -0.011,0 -0.033,0.002 -0.055,0.004 -2.859,-0.104 -6.971,-10.022 -6.971,-25.519 0,-15.579 4.155,-25.521 7.016,-25.521 2.861,0 7.017,9.942 7.017,25.521 0,1.356 -0.042,2.736 -0.109,4.113 -0.092,0.194 -0.147,0.408 -0.147,0.637 v 3.115 c 0,1.379 -1.121,2.5 -2.5,2.5 h -0.744 c -1.379,0 -2.5,-1.121 -2.5,-2.5 v -3.115 c 0,-0.828 -0.672,-1.5 -1.5,-1.5 -0.828,0 -1.5,0.672 -1.5,1.5 v 3.115 c 0,3.032 2.468,5.5 5.5,5.5 h 0.744 c 3.032,0 5.5,-2.468 5.5,-5.5 v -2.183 c 4.428,-4.718 7.562,-5.901 8.184,-5.453 0.236,0.171 0.674,1.377 -0.38,4.579 z"
           style="fill:#33363a"
           inkscape:connector-curvature="0" />
        <g
           id="g915">
          <circle
             id="circle913"
             r="5.3070002"
             cy="44.198002"
             cx="64.084999"
             style="fill:#ffffff" />
        </g>
        <g
           id="g919">
          <path
             id="path917"
             d="m 58.778,44.198 c 0,-2.93 2.375,-5.307 5.307,-5.307 2.932,0 5.307,2.377 5.307,5.307"
             style="fill:#d9e7e8"
             inkscape:connector-curvature="0" />
        </g>
        <g
           id="g923">
          <path
             id="path921"
             d="m 64.085,51.005 c -3.753,0 -6.807,-3.054 -6.807,-6.807 0,-3.753 3.054,-6.807 6.807,-6.807 3.753,0 6.807,3.054 6.807,6.807 0,3.753 -3.054,6.807 -6.807,6.807 z m 0,-10.613 c -2.099,0 -3.807,1.708 -3.807,3.807 0,2.099 1.708,3.807 3.807,3.807 2.099,0 3.807,-1.708 3.807,-3.807 0,-2.099 -1.708,-3.807 -3.807,-3.807 z"
             style="fill:#33363a"
             inkscape:connector-curvature="0" />
        </g>
        <g
           id="g927">
          <path
             id="path925"
             d="m 69.392,45.698 c -0.828,0 -1.5,-0.672 -1.5,-1.5 0,-2.099 -1.708,-3.807 -3.807,-3.807 -2.099,0 -3.807,1.708 -3.807,3.807 0,0.828 -0.672,1.5 -1.5,1.5 -0.828,0 -1.5,-0.672 -1.5,-1.5 0,-3.753 3.054,-6.807 6.807,-6.807 3.753,0 6.807,3.054 6.807,6.807 0,0.828 -0.672,1.5 -1.5,1.5 z"
             style="fill:#33363a"
             inkscape:connector-curvature="0" />
        </g>
      </g>
      <g
         id="g931" />
      <g
         id="g933" />
      <g
         id="g935" />
      <g
         id="g937" />
      <g
         id="g939" />
      <g
         id="g941" />
      <g
         id="g943" />
      <g
         id="g945" />
      <g
         id="g947" />
      <g
         id="g949" />
      <g
         id="g951" />
      <g
         id="g953" />
      <g
         id="g955" />
      <g
         id="g957" />
      <g
         id="g959" />
    </g>
  </g>
</svg>
